# Blender 3.3.0
# www.blender.org
mtllib wooden_shelf_col.mtl
o Cube.017
v -2.136763 2.233298 0.174112
v -2.146446 2.233317 4.355439
v -2.139991 2.233305 1.567887
v -2.143218 2.233311 2.961663
v -2.136905 2.156291 0.174112
v -2.146588 2.156309 4.355439
v -2.143360 2.156303 2.961663
v -2.140133 2.156297 1.567887
v 2.305578 2.225112 0.184398
v 2.295896 2.225131 4.365726
v 2.302350 2.225119 1.578174
v 2.299124 2.225125 2.971950
v 2.305436 2.148104 0.184398
v 2.295754 2.148123 4.365726
v 2.298982 2.148117 2.971950
v 2.302208 2.148111 1.578174
v 0.084266 2.152197 0.179255
v 0.084408 2.229205 0.179255
v 0.077953 2.229218 2.966807
v 0.074726 2.229224 4.360583
v 0.074584 2.152216 4.360583
v 0.081180 2.229212 1.573031
v 0.077811 2.152210 2.966807
v 0.081038 2.152204 1.573031
vn -1.0000 0.0018 -0.0023
vn 0.0018 1.0000 -0.0000
vn 0.0023 -0.0000 -1.0000
vn -0.0018 -1.0000 -0.0000
vn -0.0023 -0.0000 1.0000
vn 1.0000 -0.0018 0.0023
vt 0.961619 1.000000
vt 0.980811 0.019620
vt 0.942426 0.000000
vt 0.961615 0.000000
vt 0.942430 1.000000
vt 0.980811 0.000000
vt 0.961618 0.666667
vt 0.942428 0.333333
vt 0.961617 0.333333
vt 0.942429 0.666667
vt 0.942430 1.000000
vt 1.000000 0.019620
vt 0.000000 0.000000
vt 0.942426 0.000000
vt 0.000008 1.000000
vt 1.000000 0.000000
vt 0.942428 0.333333
vt 0.000005 0.666666
vt 0.942429 0.666667
vt 0.000003 0.333333
vt 0.961619 1.000000
vt 0.980811 0.019620
vt 0.942426 0.000000
vt 0.961615 0.000000
vt 0.942430 1.000000
vt 0.980811 0.000000
vt 0.961618 0.666667
vt 0.942428 0.333333
vt 0.961617 0.333333
vt 0.942429 0.666667
vt 0.942430 1.000000
vt 1.000000 0.019620
vt 0.000000 0.000000
vt 0.942426 0.000000
vt 0.000008 1.000000
vt 1.000000 0.000000
vt 0.942428 0.333333
vt 0.000005 0.666666
vt 0.942429 0.666667
vt 0.000003 0.333333
vt 0.980808 1.000000
vt 1.000000 0.009810
vt 0.471207 0.000000
vt 0.961619 1.000000
vt 0.980811 0.009810
vt 0.471207 0.000000
vt 0.961617 0.333333
vt 0.471218 0.666667
vt 0.961615 0.000000
vt 0.471219 1.000000
vt 0.980811 0.009810
vt 0.980811 0.000000
vt 0.471219 1.000000
vt 1.000000 0.009810
vt 0.961618 0.666667
vt 0.471210 0.333333
vt 0.980810 0.333333
vt 0.471218 0.666667
vt 0.980809 0.666667
vt 0.471210 0.333333
s 0
usemtl Material.free
f 8/19/1 3/7/1 1/1/1 5/11/1
f 6/14/1 2/4/1 4/9/1 7/17/1
f 7/17/1 4/9/1 3/7/1 8/19/1
f 4/10/2 2/5/2 20/50/2 19/48/2
f 5/12/3 1/2/3 18/45/3 17/42/3
f 8/20/4 5/13/4 17/43/4 24/60/4
f 3/8/2 4/10/2 19/48/2 22/56/2
f 6/15/4 7/18/4 23/58/4 21/53/4
f 1/3/2 3/8/2 22/56/2 18/46/2
f 7/18/4 8/20/4 24/60/4 23/58/4
f 2/6/5 6/16/5 21/54/5 20/51/5
f 16/39/6 13/31/6 9/21/6 11/27/6
f 14/34/6 15/37/6 12/29/6 10/24/6
f 15/37/6 16/39/6 11/27/6 12/29/6
f 24/59/1 22/55/1 18/44/1 17/41/1
f 21/52/1 20/49/1 19/47/1 23/57/1
f 23/57/1 19/47/1 22/55/1 24/59/1
f 12/30/2 19/48/2 20/50/2 10/25/2
f 13/32/3 17/42/3 18/45/3 9/22/3
f 16/40/4 24/60/4 17/43/4 13/33/4
f 11/28/2 22/56/2 19/48/2 12/30/2
f 14/35/4 21/53/4 23/58/4 15/38/4
f 9/23/2 18/46/2 22/56/2 11/28/2
f 15/38/4 23/58/4 24/60/4 16/40/4
f 10/26/5 20/51/5 21/54/5 14/36/5
o Cube.018
v 2.305513 -1.417633 3.009199
v -2.161755 -1.409401 2.998855
v 2.312100 2.156535 3.009199
v -2.155167 2.164768 2.998855
v -2.161676 -1.409401 2.964803
v 2.305592 -1.417633 2.975147
v -2.155089 2.164768 2.964803
v 2.312179 2.156535 2.975147
vn -0.0023 -0.0000 1.0000
vn 0.0023 -0.0000 -1.0000
vn -0.0018 -1.0000 -0.0000
vn 1.0000 -0.0018 0.0023
vn -1.0000 0.0018 -0.0023
vn 0.0018 1.0000 -0.0000
vt 0.000000 0.000000
vt 0.219613 1.000000
vt 0.878453 0.969879
vt 0.000000 0.500000
vt 0.219613 0.500000
vt 0.439226 0.969879
vt 0.500000 0.000000
vt 0.878453 0.500000
vt 0.000000 0.500000
vt 0.500000 0.500000
vt 0.439226 0.500000
vt 0.000000 1.000000
vt 1.000000 0.500000
vt 0.439226 0.500000
vt 0.658840 0.969879
vt 1.000000 0.000000
vt 0.439226 1.000000
vt 0.658840 0.969879
vt 0.500000 0.500000
vt 0.658840 0.500000
vt 0.219613 1.000000
vt 0.500000 0.000000
vt 0.658840 0.500000
vt 0.219613 0.500000
s 0
usemtl Material.free
f 25/61/7 27/67/7 28/70/7 26/64/7
f 30/76/8 29/73/8 31/79/8 32/82/8
f 25/62/9 26/65/9 29/74/9 30/77/9
f 27/68/10 25/63/10 30/78/10 32/83/10
f 26/66/11 28/71/11 31/80/11 29/75/11
f 28/72/12 27/69/12 32/84/12 31/81/12
o Cube.019
v 2.311997 -1.417645 0.208770
v -2.155271 -1.409413 0.198425
v 2.318585 2.156523 0.208770
v -2.148683 2.164756 0.198425
v -2.155192 -1.409413 0.164373
v 2.312076 -1.417645 0.174718
v -2.148604 2.164756 0.164373
v 2.318664 2.156523 0.174718
vn -0.0023 -0.0000 1.0000
vn 0.0023 -0.0000 -1.0000
vn -0.0018 -1.0000 -0.0000
vn 1.0000 -0.0018 0.0023
vn -1.0000 0.0018 -0.0023
vn 0.0018 1.0000 -0.0000
vt 0.000000 0.000000
vt 0.000000 0.000000
vt 0.000000 0.000000
vt 0.000000 0.000000
vt 0.000000 0.000000
vt 0.000000 0.000000
vt 0.000000 0.000000
vt 0.000000 0.000000
s 0
usemtl Material.free
f 33/85/13 35/87/13 36/88/13 34/86/13
f 38/90/14 37/89/14 39/91/14 40/92/14
f 33/85/15 34/86/15 37/89/15 38/90/15
f 35/87/16 33/85/16 38/90/16 40/92/16
f 34/86/17 36/88/17 39/91/17 37/89/17
f 36/88/18 35/87/18 40/92/18 39/91/18
o Cube.020
v 2.308758 -1.417639 1.607748
v -2.158510 -1.409407 1.597404
v 2.315346 2.156529 1.607748
v -2.151922 2.164762 1.597404
v -2.158431 -1.409407 1.563352
v 2.308837 -1.417639 1.573696
v -2.151844 2.164762 1.563352
v 2.315424 2.156529 1.573696
vn -0.0023 -0.0000 1.0000
vn 0.0023 -0.0000 -1.0000
vn -0.0018 -1.0000 -0.0000
vn 1.0000 -0.0018 0.0023
vn -1.0000 0.0018 -0.0023
vn 0.0018 1.0000 -0.0000
vt 0.000000 0.000000
vt 0.219613 1.000000
vt 0.878453 0.969879
vt 0.000000 0.500000
vt 0.219613 0.500000
vt 0.439226 0.969879
vt 0.500000 0.000000
vt 0.878453 0.500000
vt 0.000000 0.500000
vt 0.500000 0.500000
vt 0.439226 0.500000
vt 0.000000 1.000000
vt 1.000000 0.500000
vt 0.439226 0.500000
vt 0.658840 0.969879
vt 1.000000 0.000000
vt 0.439226 1.000000
vt 0.658840 0.969879
vt 0.500000 0.500000
vt 0.658840 0.500000
vt 0.219613 1.000000
vt 0.500000 0.000000
vt 0.658840 0.500000
vt 0.219613 0.500000
s 0
usemtl Material.free
f 41/93/19 43/99/19 44/102/19 42/96/19
f 46/108/20 45/105/20 47/111/20 48/114/20
f 41/94/21 42/97/21 45/106/21 46/109/21
f 43/100/22 41/95/22 46/110/22 48/115/22
f 42/98/23 44/103/23 47/112/23 45/107/23
f 44/104/24 43/101/24 48/116/24 47/113/24
o Cube.024
v 2.628425 -1.579221 4.346458
v -2.492902 -1.569783 4.334599
v -2.485892 2.233227 4.334599
v 2.635435 2.223788 4.346458
v 2.628225 -1.579220 4.432472
v -2.493102 -1.569780 4.420613
v -2.486091 2.233227 4.420613
v 2.635234 2.223788 4.432472
vn 0.0023 -0.0000 -1.0000
vn -0.0023 -0.0000 1.0000
vn -0.0018 -1.0000 -0.0000
vn -1.0000 0.0018 -0.0023
vn 0.0018 1.0000 -0.0000
vn 1.0000 -0.0018 0.0023
vt 0.000000 0.666667
vt 0.666667 0.333333
vt 0.333333 0.666667
vt 0.666667 0.000000
vt 0.000000 0.333333
vt 0.333333 1.000000
vt 0.333333 0.333333
vt 1.000000 0.333333
vt 0.000000 1.000000
vt 1.000000 0.000000
vt 0.666667 0.666667
vt 0.333333 0.333333
vt 0.000000 0.333333
vt 0.333333 0.000000
vt 0.000000 0.000000
vt 0.000000 0.666667
vt 0.333333 0.000000
vt 0.666667 0.333333
vt 0.666667 0.000000
vt 0.333333 0.666667
s 0
usemtl Material.free
f 49/117/25 50/119/25 51/122/25 52/125/25
f 53/128/26 56/136/26 55/132/26 54/129/26
f 49/118/27 53/128/27 54/130/27 50/120/27
f 50/121/28 54/131/28 55/133/28 51/123/28
f 51/124/29 55/134/29 56/135/29 52/126/29
f 53/128/30 49/118/30 52/127/30 56/136/30
o Cube.026
v 2.533248 -1.469568 0.103188
v -2.377669 -1.460518 0.091816
v -2.371064 2.123538 0.091816
v 2.539853 2.114487 0.103187
v 2.533061 -1.469569 0.182763
v -2.377856 -1.460517 0.171392
v -2.371248 2.123538 0.171391
v 2.539668 2.114487 0.182763
vn 0.0023 -0.0000 -1.0000
vn -0.0023 -0.0000 1.0000
vn -0.0018 -1.0000 -0.0000
vn -1.0000 0.0018 -0.0023
vn 0.0018 1.0000 -0.0000
vn 1.0000 -0.0018 0.0023
vt 0.656340 0.500000
vt 0.335915 0.500000
vt 0.984510 1.000000
vt 0.656340 1.000000
vt 0.335915 0.000000
vt 0.671830 0.500000
vt 0.328170 1.000000
vt 1.000000 0.500000
vt 0.671830 0.500000
vt 0.328170 0.500000
vt 0.671830 0.000000
vt 0.656340 1.000000
vt 0.000000 0.500000
vt 0.984510 0.500000
vt 0.000000 1.000000
vt 0.000000 0.000000
vt 0.671830 0.000000
vt 0.328170 1.000000
vt 1.000000 0.000000
vt 0.335915 0.500000
vt 0.328170 0.500000
vt 0.335915 0.000000
vt 0.656340 0.500000
s 0
usemtl Material.free
f 57/137/31 58/140/31 59/143/31 60/146/31
f 61/149/32 64/157/32 63/154/32 62/151/32
f 57/138/33 61/149/33 62/152/33 58/141/33
f 58/142/34 62/153/34 63/155/34 59/144/34
f 59/145/35 63/156/35 64/158/35 60/147/35
f 61/150/36 57/139/36 60/148/36 64/159/36
o Cube
v -2.346705 2.233436 0.168461
v -2.346705 2.233436 4.401996
v -2.139890 2.233436 0.168461
v -2.139890 2.233436 4.401996
v -2.346705 -1.583508 0.168461
v -2.346705 -1.583508 4.401996
v -2.139890 -1.583508 0.168461
v -2.139890 -1.583508 4.401996
vn -0.0000 1.0000 -0.0000
vn 1.0000 -0.0000 -0.0000
vn -0.0000 -1.0000 -0.0000
vn -1.0000 -0.0000 -0.0000
vn -0.0000 -0.0000 -1.0000
vn -0.0000 -0.0000 1.0000
vt 0.375000 0.000000
vt 0.375000 1.000000
vt 0.125000 0.750000
vt 0.625000 0.000000
vt 0.625000 1.000000
vt 0.875000 0.750000
vt 0.375000 0.250000
vt 0.125000 0.500000
vt 0.625000 0.250000
vt 0.875000 0.500000
vt 0.375000 0.750000
vt 0.625000 0.750000
vt 0.375000 0.500000
vt 0.625000 0.500000
s 0
f 65/160/37 66/163/37 68/168/37 67/166/37
f 67/166/38 68/168/38 72/173/38 71/172/38
f 71/172/39 72/173/39 70/171/39 69/170/39
f 69/170/40 70/171/40 66/164/40 65/161/40
f 67/167/41 71/172/41 69/170/41 65/162/41
f 72/173/42 68/169/42 66/165/42 70/171/42
o Cube.001
v 2.276165 2.233436 0.168461
v 2.276165 2.233436 4.401996
v 2.482981 2.233436 0.168461
v 2.482981 2.233436 4.401996
v 2.276165 -1.583508 0.168461
v 2.276165 -1.583508 4.401996
v 2.482981 -1.583508 0.168461
v 2.482981 -1.583508 4.401996
vn -0.0000 1.0000 -0.0000
vn 1.0000 -0.0000 -0.0000
vn -0.0000 -1.0000 -0.0000
vn -1.0000 -0.0000 -0.0000
vn -0.0000 -0.0000 -1.0000
vn -0.0000 -0.0000 1.0000
vt 0.375000 0.000000
vt 0.375000 1.000000
vt 0.125000 0.750000
vt 0.625000 0.000000
vt 0.625000 1.000000
vt 0.875000 0.750000
vt 0.375000 0.250000
vt 0.125000 0.500000
vt 0.625000 0.250000
vt 0.875000 0.500000
vt 0.375000 0.750000
vt 0.625000 0.750000
vt 0.375000 0.500000
vt 0.625000 0.500000
s 0
f 73/174/43 74/177/43 76/182/43 75/180/43
f 75/180/44 76/182/44 80/187/44 79/186/44
f 79/186/45 80/187/45 78/185/45 77/184/45
f 77/184/46 78/185/46 74/178/46 73/175/46
f 75/181/47 79/186/47 77/184/47 73/176/47
f 80/187/48 76/183/48 74/179/48 78/185/48
o Cube.006
v -2.340200 2.141786 0.168461
v -2.340200 2.141786 4.401996
v -2.340188 2.234164 0.168461
v -2.340188 2.234164 4.401996
v 2.424673 2.141162 0.168461
v 2.424673 2.141162 4.401996
v 2.424685 2.233540 0.168461
v 2.424685 2.233540 4.401996
vn -1.0000 0.0001 -0.0000
vn 0.0001 1.0000 -0.0000
vn 1.0000 -0.0001 -0.0000
vn -0.0001 -1.0000 -0.0000
vn -0.0000 -0.0000 -1.0000
vn -0.0000 -0.0000 1.0000
vt 0.375000 0.000000
vt 0.375000 1.000000
vt 0.125000 0.750000
vt 0.625000 0.000000
vt 0.625000 1.000000
vt 0.875000 0.750000
vt 0.375000 0.250000
vt 0.125000 0.500000
vt 0.625000 0.250000
vt 0.875000 0.500000
vt 0.375000 0.750000
vt 0.625000 0.750000
vt 0.375000 0.500000
vt 0.625000 0.500000
s 0
f 81/188/49 82/191/49 84/196/49 83/194/49
f 83/194/50 84/196/50 88/201/50 87/200/50
f 87/200/51 88/201/51 86/199/51 85/198/51
f 85/198/52 86/199/52 82/192/52 81/189/52
f 83/195/53 87/200/53 85/198/53 81/190/53
f 88/201/54 84/197/54 82/193/54 86/199/54
