# Blender 3.3.0
# www.blender.org
mtllib wooden_cabinet_top.mtl
o Cube.014_Cube.008
v 2.290784 -1.560412 2.977009
v 2.287555 -1.560407 4.370784
v -2.147403 -1.552233 2.966732
v -2.150631 -1.552226 4.360507
v 2.291047 -1.417606 2.977009
v 2.287820 -1.417601 4.370784
v -2.147140 -1.409427 2.966732
v -2.150368 -1.409421 4.360507
v 2.239281 -1.560317 2.976889
v -2.095901 -1.552328 2.966851
v 2.236053 -1.560311 4.370665
v -2.099128 -1.552322 4.360627
v 2.239544 -1.417512 2.976889
v -2.095637 -1.409523 2.966851
v 2.236316 -1.417506 4.370665
v -2.098865 -1.409516 4.360627
v 2.290716 -1.560412 3.006552
v 2.287624 -1.560406 4.341241
v -2.147472 -1.552232 2.996275
v -2.150563 -1.552226 4.330964
v 2.290979 -1.417606 3.006552
v 2.287888 -1.417601 4.341241
v -2.147208 -1.409426 2.996275
v -2.150300 -1.409421 4.330964
v 2.239476 -1.417511 3.006433
v 2.236385 -1.417506 4.341122
v -2.095706 -1.409522 2.996394
v -2.098797 -1.409516 4.331083
v 2.236121 -1.560312 4.341122
v 2.239212 -1.560317 3.006433
v -2.099060 -1.552323 4.331083
v -2.095969 -1.552328 2.996394
v 2.245578 1.893696 3.006433
v 2.242488 1.893702 4.341122
v -2.089603 1.901685 2.996394
v -2.092695 1.901691 4.331083
v -2.012399 -1.287588 4.331283
v 2.150438 -1.295260 4.340922
v -2.006747 1.779445 4.331283
v 2.156090 1.771774 4.340922
v -2.009684 -1.287593 3.158525
v 2.153154 -1.295265 3.168165
v -2.004032 1.779440 3.158525
v 2.158806 1.771769 3.168165
vn -0.0019 -1.0000 -0.0000
vn 0.0018 1.0000 -0.0000
vn -1.0000 0.0018 -0.0023
vn 1.0000 -0.0019 0.0023
vn -0.0023 -0.0000 1.0000
vn 0.0023 -0.0000 -1.0000
vn -0.0018 -1.0000 -0.0000
vn 1.0000 -0.0018 0.0023
vn 0.0019 1.0000 -0.0000
vt 0.896314 0.287642
vt 0.108924 0.000000
vt 0.995883 1.000000
vt 0.995883 0.000000
vt 0.896314 0.170034
vt 0.108925 1.000000
vt 1.000000 0.000000
vt 0.896314 0.228838
vt 0.000000 0.000000
vt 0.000000 1.000000
vt 0.896314 0.228838
vt 1.000000 1.000000
vt 0.900430 0.287642
vt 0.108924 0.000000
vt 0.991767 1.000000
vt 0.991767 0.000000
vt 0.900430 0.170034
vt 0.108925 1.000000
vt 0.995883 0.000000
vt 0.900430 0.228838
vt 0.217849 0.000000
vt 0.217849 1.000000
vt 0.900430 0.228838
vt 0.995883 1.000000
vt 0.896314 0.286960
vt 0.107660 0.000000
vt 0.896314 0.229521
vt 0.001264 0.000000
vt 0.896314 0.170717
vt 0.107661 1.000000
vt 0.896314 0.228156
vt 0.001264 1.000000
vt 0.900430 0.286960
vt 0.110189 0.000000
vt 0.900430 0.229521
vt 0.216585 0.000000
vt 0.900430 0.170717
vt 0.110189 1.000000
vt 0.900430 0.228156
vt 0.216585 1.000000
vt 0.108924 0.021197
vt 0.995883 0.978803
vt 0.108925 0.978804
vt 0.995883 0.021197
vt 1.000000 0.021197
vt 0.000000 0.021197
vt 1.000000 0.978804
vt 0.000000 0.978804
vt 0.108924 0.021197
vt 0.991767 0.978803
vt 0.108925 0.978804
vt 0.991767 0.021196
vt 0.995883 0.021197
vt 0.217849 0.021197
vt 0.995883 0.978803
vt 0.217849 0.978804
vt 0.110189 0.021197
vt 0.991767 0.057439
vt 0.515152 0.957607
vt 0.110189 0.978804
vt 0.515152 0.000000
vt 0.991767 0.057439
vt 0.216585 0.021197
vt 0.324246 0.957607
vt 0.991766 0.114879
vt 0.216585 0.978804
vt 0.324246 0.000000
vt 0.991767 0.000000
vt 0.107661 0.978803
vt 0.107660 0.021197
vt 0.001264 0.978804
vt 0.001264 0.021197
vt 0.217849 0.000000
vt 0.896314 0.057439
vt 0.419699 0.957607
vt 0.217849 0.957607
vt 0.419699 0.000000
vt 0.896314 0.057439
vt 0.324246 0.000000
vt 0.419699 0.957607
vt 0.896314 0.114879
vt 0.324246 0.957607
vt 0.419699 0.000000
vt 0.896314 0.000000
vt 0.988247 0.001142
vt 0.896314 0.000000
vt 0.515152 0.000000
vt 0.719485 0.000000
vt 0.988247 0.056298
vt 0.617319 0.000000
vt 0.899833 0.001142
vt 0.807899 0.000000
vt 0.617319 0.841425
vt 0.807899 0.000000
vt 0.899833 0.056298
vt 0.719486 0.841425
vt 0.896314 0.170034
vt 0.896313 0.841425
vt 0.515152 0.841425
vt 0.719486 0.841425
vt 0.896314 0.114879
vt 0.617319 0.841425
vt 0.984728 0.170034
vt 0.807899 0.841425
vt 0.617319 0.000000
vt 0.807899 0.841425
vt 0.984728 0.114879
vt 0.719485 0.000000
s 0
usemtl Material.001
f 31/71/1 12/32/1 4/10/1 20/48/1
f 28/66/2 24/56/2 8/22/2 16/40/2
f 19/45/3 23/53/3 7/19/3 3/7/3
f 18/44/4 22/52/4 6/16/4 2/4/4
f 12/31/5 16/39/5 8/23/5 4/11/5
f 9/25/6 13/33/6 5/13/6 1/1/6
f 3/8/6 7/20/6 14/35/6 10/27/6
f 10/27/6 14/35/6 13/33/6 9/25/6
f 2/5/5 6/17/5 15/37/5 11/29/5
f 11/29/5 15/37/5 16/39/5 12/31/5
f 22/51/2 26/60/2 15/38/2 6/18/2
f 26/60/2 28/66/2 16/40/2 15/38/2
f 18/43/1 2/6/1 11/30/1 29/69/1
f 29/69/7 11/30/7 12/32/7 31/71/7
f 9/26/7 30/70/7 32/72/7 10/28/7
f 30/70/7 29/69/7 31/71/7 32/72/7
f 1/2/7 17/41/7 30/70/7 9/26/7
f 17/41/7 18/43/7 29/69/7 30/70/7
f 13/34/2 14/36/2 27/63/2 25/57/2
f 26/62/5 34/78/5 40/95/5 38/89/5
f 5/14/2 13/34/2 25/57/2 21/49/2
f 21/49/2 25/57/2 26/60/2 22/51/2
f 1/3/8 5/15/8 21/50/8 17/42/8
f 17/42/8 21/50/8 22/52/8 18/44/8
f 4/12/3 8/24/3 24/55/3 20/47/3
f 20/47/3 24/55/3 23/53/3 19/45/3
f 14/36/9 7/21/9 23/54/9 27/63/9
f 27/63/9 23/54/9 24/56/9 28/66/9
f 10/28/1 32/72/1 19/46/1 3/9/1
f 32/72/1 31/71/1 20/48/1 19/46/1
f 33/73/2 35/79/2 36/82/2 34/76/2
f 27/64/3 28/67/3 36/83/3 35/80/3
f 25/58/6 27/65/6 35/81/6 33/74/6
f 26/61/8 25/59/8 33/75/8 34/77/8
f 38/88/3 40/94/3 44/106/3 42/100/3
f 36/84/5 28/68/5 37/85/5 39/91/5
f 28/68/5 26/62/5 38/89/5 37/85/5
f 34/78/5 36/84/5 39/91/5 40/95/5
f 41/97/5 42/101/5 44/107/5 43/103/5
f 39/92/8 37/86/8 41/98/8 43/104/8
f 40/96/7 39/93/7 43/105/7 44/108/7
f 37/87/2 38/90/2 42/102/2 41/99/2
