# Blender v3.2.2 OBJ File: 'milk.blend'
# www.blender.org
mtllib milk_col.mtl
o Cube_Cube.001
v 3.550000 -9.300000 -3.500000
v 3.550000 5.300000 -3.500000
v 3.550000 -9.300000 3.500000
v 3.550000 5.300000 3.500000
v -3.450000 -9.300000 -3.500000
v -3.450000 5.300000 -3.500000
v -3.450000 -9.300000 3.500000
v -3.450000 5.300000 3.500000
vt 0.375000 0.000000
vt 0.625000 0.000000
vt 0.625000 0.250000
vt 0.375000 0.250000
vt 0.625000 0.500000
vt 0.375000 0.500000
vt 0.625000 0.750000
vt 0.375000 0.750000
vt 0.625000 1.000000
vt 0.375000 1.000000
vt 0.125000 0.500000
vt 0.125000 0.750000
vt 0.875000 0.500000
vt 0.875000 0.750000
vn 1.0000 0.0000 0.0000
vn 0.0000 0.0000 1.0000
vn -1.0000 0.0000 0.0000
vn 0.0000 0.0000 -1.0000
vn 0.0000 -1.0000 0.0000
vn 0.0000 1.0000 0.0000
usemtl None
s off
f 1/1/1 2/2/1 4/3/1 3/4/1
f 3/4/2 4/3/2 8/5/2 7/6/2
f 7/6/3 8/5/3 6/7/3 5/8/3
f 5/8/4 6/7/4 2/9/4 1/10/4
f 3/11/5 7/6/5 5/8/5 1/12/5
f 8/5/6 4/13/6 2/14/6 6/7/6
o Cube.001_Cube.003
v -3.502045 7.828818 0.631658
v -3.502045 5.358167 3.363106
v -3.502045 7.397882 0.241868
v -3.502045 4.927231 2.973316
v 3.514946 7.828818 0.631658
v 3.514946 5.358167 3.363106
v 3.514946 7.397882 0.241868
v 3.514946 4.927231 2.973316
vt 0.375000 0.000000
vt 0.375000 0.250000
vt 0.625000 0.250000
vt 0.625000 0.000000
vt 0.375000 0.500000
vt 0.625000 0.500000
vt 0.375000 0.750000
vt 0.625000 0.750000
vt 0.375000 1.000000
vt 0.625000 1.000000
vt 0.125000 0.500000
vt 0.125000 0.750000
vt 0.875000 0.750000
vt 0.875000 0.500000
vn -1.0000 -0.0000 0.0000
vn 0.0000 -0.7416 -0.6708
vn 1.0000 -0.0000 0.0000
vn 0.0000 0.7416 0.6708
vn 0.0000 0.6708 -0.7416
vn 0.0000 -0.6708 0.7416
usemtl None
s off
f 9/15/7 11/16/7 12/17/7 10/18/7
f 11/16/8 15/19/8 16/20/8 12/17/8
f 15/19/9 13/21/9 14/22/9 16/20/9
f 13/21/10 9/23/10 10/24/10 14/22/10
f 11/25/11 9/26/11 13/21/11 15/19/11
f 16/20/12 14/22/12 10/27/12 12/28/12
o Cube.002_Cube.004
v -3.502045 5.404264 -3.382000
v -3.502045 7.793941 -0.579435
v -3.502045 4.962109 -3.004985
v -3.502045 7.351785 -0.202420
v 3.514946 5.404264 -3.382000
v 3.514946 7.793941 -0.579435
v 3.514946 4.962109 -3.004985
v 3.514946 7.351785 -0.202420
vt 0.375000 0.000000
vt 0.375000 0.250000
vt 0.625000 0.250000
vt 0.625000 0.000000
vt 0.375000 0.500000
vt 0.625000 0.500000
vt 0.375000 0.750000
vt 0.625000 0.750000
vt 0.375000 1.000000
vt 0.625000 1.000000
vt 0.125000 0.500000
vt 0.125000 0.750000
vt 0.875000 0.750000
vt 0.875000 0.500000
vn -1.0000 0.0000 0.0000
vn 0.0000 -0.7609 0.6488
vn 1.0000 -0.0000 0.0000
vn 0.0000 0.7609 -0.6488
vn 0.0000 -0.6488 -0.7609
vn 0.0000 0.6488 0.7609
usemtl None
s off
f 17/29/13 19/30/13 20/31/13 18/32/13
f 19/30/14 23/33/14 24/34/14 20/31/14
f 23/33/15 21/35/15 22/36/15 24/34/15
f 21/35/16 17/37/16 18/38/16 22/36/16
f 19/39/17 17/40/17 21/35/17 23/33/17
f 24/34/18 22/36/18 18/41/18 20/42/18
o Cube.003_Cube.005
v 3.539420 7.405401 -0.457446
v 3.539420 8.193081 -0.457446
v 3.539420 7.405401 0.469917
v 3.539420 8.193081 0.469917
v -3.526519 7.405401 -0.457446
v -3.526519 8.193081 -0.457446
v -3.526519 7.405401 0.469917
v -3.526519 8.193081 0.469917
vt 0.375000 0.000000
vt 0.625000 0.000000
vt 0.625000 0.250000
vt 0.375000 0.250000
vt 0.625000 0.500000
vt 0.375000 0.500000
vt 0.625000 0.750000
vt 0.375000 0.750000
vt 0.625000 1.000000
vt 0.375000 1.000000
vt 0.125000 0.500000
vt 0.125000 0.750000
vt 0.875000 0.500000
vt 0.875000 0.750000
vn 1.0000 0.0000 0.0000
vn 0.0000 0.0000 1.0000
vn -1.0000 0.0000 0.0000
vn 0.0000 0.0000 -1.0000
vn 0.0000 -1.0000 0.0000
vn 0.0000 1.0000 0.0000
usemtl None
s off
f 25/43/19 26/44/19 28/45/19 27/46/19
f 27/46/20 28/45/20 32/47/20 31/48/20
f 31/48/21 32/47/21 30/49/21 29/50/21
f 29/50/22 30/49/22 26/51/22 25/52/22
f 27/53/23 31/48/23 29/50/23 25/54/23
f 32/47/24 28/55/24 26/56/24 30/49/24
