# Blender 3.3.0
# www.blender.org
mtllib wine_rack_stoppers_col.mtl
o Cube.001
v -29.381443 -15.464666 47.486782
v -29.381443 -17.349411 50.845238
v 29.381443 -15.464666 47.486782
v 29.381443 -17.349411 50.845238
v -29.381443 -15.881850 47.252663
v -29.381443 -17.766596 50.611118
v 29.381443 -15.881850 47.252663
v 29.381443 -17.766596 50.611118
vn -0.0000 0.8721 0.4894
vn 1.0000 -0.0000 -0.0000
vn -0.0000 -0.8721 -0.4894
vn -1.0000 -0.0000 -0.0000
vn -0.0000 0.4894 -0.8721
vn -0.0000 -0.4894 0.8721
vt 0.375000 0.000000
vt 0.375000 1.000000
vt 0.125000 0.750000
vt 0.625000 0.000000
vt 0.625000 1.000000
vt 0.875000 0.750000
vt 0.375000 0.250000
vt 0.125000 0.500000
vt 0.625000 0.250000
vt 0.875000 0.500000
vt 0.375000 0.750000
vt 0.625000 0.750000
vt 0.375000 0.500000
vt 0.625000 0.500000
s 0
f 1/1/1 2/4/1 4/9/1 3/7/1
f 3/7/2 4/9/2 8/14/2 7/13/2
f 7/13/3 8/14/3 6/12/3 5/11/3
f 5/11/4 6/12/4 2/5/4 1/2/4
f 3/8/5 7/13/5 5/11/5 1/3/5
f 8/14/6 4/10/6 2/6/6 6/12/6
o Cube.002
v -29.381443 -23.097626 20.070436
v -29.381443 -24.982370 23.428894
v 29.381443 -23.097626 20.070436
v 29.381443 -24.982370 23.428894
v -29.381443 -23.514811 19.836315
v -29.381443 -25.399555 23.194773
v 29.381443 -23.514811 19.836315
v 29.381443 -25.399555 23.194773
vn -0.0000 0.8721 0.4894
vn 1.0000 -0.0000 -0.0000
vn -0.0000 -0.8721 -0.4894
vn -1.0000 -0.0000 -0.0000
vn -0.0000 0.4894 -0.8721
vn -0.0000 -0.4894 0.8721
vt 0.375000 0.000000
vt 0.375000 1.000000
vt 0.125000 0.750000
vt 0.625000 0.000000
vt 0.625000 1.000000
vt 0.875000 0.750000
vt 0.375000 0.250000
vt 0.125000 0.500000
vt 0.625000 0.250000
vt 0.875000 0.500000
vt 0.375000 0.750000
vt 0.625000 0.750000
vt 0.375000 0.500000
vt 0.625000 0.500000
s 0
f 9/15/7 10/18/7 12/23/7 11/21/7
f 11/21/8 12/23/8 16/28/8 15/27/8
f 15/27/9 16/28/9 14/26/9 13/25/9
f 13/25/10 14/26/10 10/19/10 9/16/10
f 11/22/11 15/27/11 13/25/11 9/17/11
f 16/28/12 12/24/12 10/20/12 14/26/12
