# Blender 3.3.0
# www.blender.org
mtllib wine_rack_planes_col.mtl
o Cube
v -29.862000 14.155514 64.069939
v -29.862000 13.117155 65.779266
v 29.862000 14.155514 64.069939
v 29.862000 13.117155 65.779266
v -29.862000 -15.830479 45.854507
v -29.862000 -16.868837 47.563835
v 29.862000 -15.830479 45.854507
v 29.862000 -16.868837 47.563835
vn -0.0000 0.8547 0.5192
vn 1.0000 -0.0000 -0.0000
vn -0.0000 -0.8547 -0.5192
vn -1.0000 -0.0000 -0.0000
vn -0.0000 0.5192 -0.8547
vn -0.0000 -0.5192 0.8547
vt 0.375000 0.000000
vt 0.375000 1.000000
vt 0.125000 0.750000
vt 0.625000 0.000000
vt 0.625000 1.000000
vt 0.875000 0.750000
vt 0.375000 0.250000
vt 0.125000 0.500000
vt 0.625000 0.250000
vt 0.875000 0.500000
vt 0.375000 0.750000
vt 0.625000 0.750000
vt 0.375000 0.500000
vt 0.625000 0.500000
s 0
f 1/1/1 2/4/1 4/9/1 3/7/1
f 3/7/2 4/9/2 8/14/2 7/13/2
f 7/13/3 8/14/3 6/12/3 5/11/3
f 5/11/4 6/12/4 2/5/4 1/2/4
f 3/8/5 7/13/5 5/11/5 1/3/5
f 8/14/6 4/10/6 2/6/6 6/12/6
o Cube.001
v -29.862000 6.015546 36.535923
v -29.862000 4.977187 38.245255
v 29.862000 6.015546 36.535923
v 29.862000 4.977187 38.245255
v -29.862000 -23.970448 18.320492
v -29.862000 -25.008804 20.029823
v 29.862000 -23.970448 18.320492
v 29.862000 -25.008804 20.029823
vn -0.0000 0.8547 0.5192
vn 1.0000 -0.0000 -0.0000
vn -0.0000 -0.8547 -0.5192
vn -1.0000 -0.0000 -0.0000
vn -0.0000 0.5192 -0.8547
vn -0.0000 -0.5192 0.8547
vt 0.375000 0.000000
vt 0.375000 1.000000
vt 0.125000 0.750000
vt 0.625000 0.000000
vt 0.625000 1.000000
vt 0.875000 0.750000
vt 0.375000 0.250000
vt 0.125000 0.500000
vt 0.625000 0.250000
vt 0.875000 0.500000
vt 0.375000 0.750000
vt 0.625000 0.750000
vt 0.375000 0.500000
vt 0.625000 0.500000
s 0
f 9/15/7 10/18/7 12/23/7 11/21/7
f 11/21/8 12/23/8 16/28/8 15/27/8
f 15/27/9 16/28/9 14/26/9 13/25/9
f 13/25/10 14/26/10 10/19/10 9/16/10
f 11/22/11 15/27/11 13/25/11 9/17/11
f 16/28/12 12/24/12 10/20/12 14/26/12
