# Blender 3.4.1
# www.blender.org
mtllib porcelain_mug_col.mtl
o Cube
v -0.063297 -0.007970 0.075773
v -0.063297 -0.007970 0.036267
v -0.055771 -0.007970 0.075773
v -0.055771 -0.007970 0.036267
v -0.063297 0.007970 0.075773
v -0.063297 0.007970 0.036267
v -0.055771 0.007970 0.075773
v -0.055771 0.007970 0.036267
vn -0.0000 -1.0000 -0.0000
vn 1.0000 -0.0000 -0.0000
vn -0.0000 1.0000 -0.0000
vn -1.0000 -0.0000 -0.0000
vn -0.0000 -0.0000 1.0000
vn -0.0000 -0.0000 -1.0000
vt 0.375000 0.000000
vt 0.375000 1.000000
vt 0.125000 0.750000
vt 0.625000 0.000000
vt 0.625000 1.000000
vt 0.875000 0.750000
vt 0.375000 0.250000
vt 0.125000 0.500000
vt 0.625000 0.250000
vt 0.875000 0.500000
vt 0.375000 0.750000
vt 0.625000 0.750000
vt 0.375000 0.500000
vt 0.625000 0.500000
s 0
f 1/1/1 2/4/1 4/9/1 3/7/1
f 3/7/2 4/9/2 8/14/2 7/13/2
f 7/13/3 8/14/3 6/12/3 5/11/3
f 5/11/4 6/12/4 2/5/4 1/2/4
f 3/8/5 7/13/5 5/11/5 1/3/5
f 8/14/6 4/10/6 2/6/6 6/12/6
o Cube.001
v -0.060715 -0.007970 0.034793
v -0.026055 -0.007970 0.015836
v -0.057103 -0.007970 0.041395
v -0.022443 -0.007970 0.022438
v -0.060715 0.007970 0.034793
v -0.026055 0.007970 0.015836
v -0.057103 0.007970 0.041395
v -0.022443 0.007970 0.022438
vn -0.0000 -1.0000 -0.0000
vn 0.4799 -0.0000 0.8773
vn -0.0000 1.0000 -0.0000
vn -0.4799 -0.0000 -0.8773
vn -0.8773 -0.0000 0.4799
vn 0.8773 -0.0000 -0.4799
vt 0.375000 0.000000
vt 0.375000 1.000000
vt 0.125000 0.750000
vt 0.625000 0.000000
vt 0.625000 1.000000
vt 0.875000 0.750000
vt 0.375000 0.250000
vt 0.125000 0.500000
vt 0.625000 0.250000
vt 0.875000 0.500000
vt 0.375000 0.750000
vt 0.625000 0.750000
vt 0.375000 0.500000
vt 0.625000 0.500000
s 0
f 9/15/7 10/18/7 12/23/7 11/21/7
f 11/21/8 12/23/8 16/28/8 15/27/8
f 15/27/9 16/28/9 14/26/9 13/25/9
f 13/25/10 14/26/10 10/19/10 9/16/10
f 11/22/11 15/27/11 13/25/11 9/17/11
f 16/28/12 12/24/12 10/20/12 14/26/12
o Cube.002
v -0.032212 -0.007970 0.097768
v -0.064683 -0.007970 0.075266
v -0.027925 -0.007970 0.091582
v -0.060396 -0.007970 0.069080
v -0.032212 0.007970 0.097768
v -0.064683 0.007970 0.075266
v -0.027925 0.007970 0.091582
v -0.060396 0.007970 0.069080
vn -0.0000 -1.0000 -0.0000
vn 0.5696 -0.0000 -0.8219
vn -0.0000 1.0000 -0.0000
vn -0.5696 -0.0000 0.8219
vn 0.8219 -0.0000 0.5696
vn -0.8219 -0.0000 -0.5696
vt 0.375000 0.000000
vt 0.375000 1.000000
vt 0.125000 0.750000
vt 0.625000 0.000000
vt 0.625000 1.000000
vt 0.875000 0.750000
vt 0.375000 0.250000
vt 0.125000 0.500000
vt 0.625000 0.250000
vt 0.875000 0.500000
vt 0.375000 0.750000
vt 0.625000 0.750000
vt 0.375000 0.500000
vt 0.625000 0.500000
s 0
f 17/29/13 18/32/13 20/37/13 19/35/13
f 19/35/14 20/37/14 24/42/14 23/41/14
f 23/41/15 24/42/15 22/40/15 21/39/15
f 21/39/16 22/40/16 18/33/16 17/30/16
f 19/36/17 23/41/17 21/39/17 17/31/17
f 24/42/18 20/38/18 18/34/18 22/40/18
o Cube.004
v 0.054348 0.020161 0.043238
v 0.054348 0.020161 0.108463
v 0.059218 0.020161 0.043238
v 0.059218 0.020161 0.108463
v 0.054348 -0.023097 0.043238
v 0.054348 -0.023097 0.108463
v 0.059218 -0.023097 0.043238
v 0.059218 -0.023097 0.108463
vn -0.0000 1.0000 -0.0000
vn 1.0000 -0.0000 -0.0000
vn -0.0000 -1.0000 -0.0000
vn -1.0000 -0.0000 -0.0000
vn -0.0000 -0.0000 -1.0000
vn -0.0000 -0.0000 1.0000
vt 0.375000 0.000000
vt 0.375000 1.000000
vt 0.125000 0.750000
vt 0.625000 0.000000
vt 0.625000 1.000000
vt 0.875000 0.750000
vt 0.375000 0.250000
vt 0.125000 0.500000
vt 0.625000 0.250000
vt 0.875000 0.500000
vt 0.375000 0.750000
vt 0.625000 0.750000
vt 0.375000 0.500000
vt 0.625000 0.500000
s 0
f 25/43/19 26/46/19 28/51/19 27/49/19
f 27/49/20 28/51/20 32/56/20 31/55/20
f 31/55/21 32/56/21 30/54/21 29/53/21
f 29/53/22 30/54/22 26/47/22 25/44/22
f 27/50/23 31/55/23 29/53/23 25/45/23
f 32/56/24 28/52/24 26/48/24 30/54/24
o Cube.003
v -0.003832 0.016957 0.012813
v -0.003832 0.016957 0.002391
v 0.033362 0.016957 0.012813
v 0.033362 0.016957 0.002391
v -0.003832 -0.020238 0.012813
v -0.003832 -0.020238 0.002391
v 0.033362 -0.020238 0.012813
v 0.033362 -0.020238 0.002391
vn -0.0000 1.0000 -0.0000
vn 1.0000 -0.0000 -0.0000
vn -0.0000 -1.0000 -0.0000
vn -1.0000 -0.0000 -0.0000
vn -0.0000 -0.0000 1.0000
vn -0.0000 -0.0000 -1.0000
vt 0.375000 0.000000
vt 0.375000 1.000000
vt 0.125000 0.750000
vt 0.625000 0.000000
vt 0.625000 1.000000
vt 0.875000 0.750000
vt 0.375000 0.250000
vt 0.125000 0.500000
vt 0.625000 0.250000
vt 0.875000 0.500000
vt 0.375000 0.750000
vt 0.625000 0.750000
vt 0.375000 0.500000
vt 0.625000 0.500000
s 0
f 33/57/25 35/63/25 36/65/25 34/60/25
f 35/63/26 39/69/26 40/70/26 36/65/26
f 39/69/27 37/67/27 38/68/27 40/70/27
f 37/67/28 33/58/28 34/61/28 38/68/28
f 35/64/29 33/59/29 37/67/29 39/69/29
f 40/70/30 38/68/30 34/62/30 36/66/30
o Cube.005
v 0.040491 0.017599 0.007150
v 0.055627 0.017599 0.041774
v 0.043076 0.017599 0.006020
v 0.058212 0.017599 0.040644
v 0.040491 -0.025660 0.007150
v 0.055627 -0.025660 0.041774
v 0.043076 -0.025660 0.006020
v 0.058212 -0.025660 0.040644
vn -0.0000 1.0000 -0.0000
vn 0.9163 -0.0000 -0.4005
vn -0.0000 -1.0000 -0.0000
vn -0.9163 -0.0000 0.4005
vn -0.4005 -0.0000 -0.9163
vn 0.4005 -0.0000 0.9163
vt 0.375000 0.000000
vt 0.375000 1.000000
vt 0.125000 0.750000
vt 0.625000 0.000000
vt 0.625000 1.000000
vt 0.875000 0.750000
vt 0.375000 0.250000
vt 0.125000 0.500000
vt 0.625000 0.250000
vt 0.875000 0.500000
vt 0.375000 0.750000
vt 0.625000 0.750000
vt 0.375000 0.500000
vt 0.625000 0.500000
s 0
f 41/71/31 42/74/31 44/79/31 43/77/31
f 43/77/32 44/79/32 48/84/32 47/83/32
f 47/83/33 48/84/33 46/82/33 45/81/33
f 45/81/34 46/82/34 42/75/34 41/72/34
f 43/78/35 47/83/35 45/81/35 41/73/35
f 48/84/36 44/80/36 42/76/36 46/82/36
o Cube.006
v 0.018889 0.029946 0.007325
v 0.028432 0.041454 0.041524
v 0.020430 0.031805 0.006270
v 0.029973 0.043313 0.040469
v 0.048276 0.005577 0.007325
v 0.057819 0.017085 0.041524
v 0.049817 0.007436 0.006270
v 0.059360 0.018944 0.040469
vn -0.7698 0.6383 -0.0000
vn 0.5849 0.7053 -0.4005
vn 0.7698 -0.6383 -0.0000
vn -0.5849 -0.7053 0.4005
vn -0.2557 -0.3083 -0.9163
vn 0.2557 0.3083 0.9163
vt 0.375000 0.000000
vt 0.375000 1.000000
vt 0.125000 0.750000
vt 0.625000 0.000000
vt 0.625000 1.000000
vt 0.875000 0.750000
vt 0.375000 0.250000
vt 0.125000 0.500000
vt 0.625000 0.250000
vt 0.875000 0.500000
vt 0.375000 0.750000
vt 0.625000 0.750000
vt 0.375000 0.500000
vt 0.625000 0.500000
s 0
f 49/85/37 50/88/37 52/93/37 51/91/37
f 51/91/38 52/93/38 56/98/38 55/97/38
f 55/97/39 56/98/39 54/96/39 53/95/39
f 53/95/40 54/96/40 50/89/40 49/86/40
f 51/92/41 55/97/41 53/95/41 49/87/41
f 56/98/42 52/94/42 50/90/42 54/96/42
o Cube.007
v 0.022655 0.043116 0.043238
v 0.022655 0.043116 0.108463
v 0.025763 0.046865 0.043238
v 0.025763 0.046865 0.108463
v 0.055954 0.015503 0.043238
v 0.055954 0.015503 0.108463
v 0.059062 0.019252 0.043238
v 0.059062 0.019252 0.108463
vn -0.7698 0.6383 -0.0000
vn 0.6383 0.7698 -0.0000
vn 0.7698 -0.6383 -0.0000
vn -0.6383 -0.7698 -0.0000
vn -0.0000 -0.0000 -1.0000
vn -0.0000 -0.0000 1.0000
vt 0.375000 0.000000
vt 0.375000 1.000000
vt 0.125000 0.750000
vt 0.625000 0.000000
vt 0.625000 1.000000
vt 0.875000 0.750000
vt 0.375000 0.250000
vt 0.125000 0.500000
vt 0.625000 0.250000
vt 0.875000 0.500000
vt 0.375000 0.750000
vt 0.625000 0.750000
vt 0.375000 0.500000
vt 0.625000 0.500000
s 0
f 57/99/43 58/102/43 60/107/43 59/105/43
f 59/105/44 60/107/44 64/112/44 63/111/44
f 63/111/45 64/112/45 62/110/45 61/109/45
f 61/109/46 62/110/46 58/103/46 57/100/46
f 59/106/47 63/111/47 61/109/47 57/101/47
f 64/112/48 60/108/48 58/104/48 62/110/48
o Cube.008
v -0.012022 0.032291 0.043238
v -0.012022 0.032291 0.108463
v -0.012922 0.037077 0.043238
v -0.012922 0.037077 0.108463
v 0.030492 0.040282 0.043238
v 0.030492 0.040282 0.108463
v 0.029592 0.045068 0.043238
v 0.029592 0.045068 0.108463
vn -0.9828 -0.1847 -0.0000
vn -0.1847 0.9828 -0.0000
vn 0.9828 0.1847 -0.0000
vn 0.1847 -0.9828 -0.0000
vn -0.0000 -0.0000 -1.0000
vn -0.0000 -0.0000 1.0000
vt 0.375000 0.000000
vt 0.375000 1.000000
vt 0.125000 0.750000
vt 0.625000 0.000000
vt 0.625000 1.000000
vt 0.875000 0.750000
vt 0.375000 0.250000
vt 0.125000 0.500000
vt 0.625000 0.250000
vt 0.875000 0.500000
vt 0.375000 0.750000
vt 0.625000 0.750000
vt 0.375000 0.500000
vt 0.625000 0.500000
s 0
f 65/113/49 66/116/49 68/121/49 67/119/49
f 67/119/50 68/121/50 72/126/50 71/125/50
f 71/125/51 72/126/51 70/124/51 69/123/51
f 69/123/52 70/124/52 66/117/52 65/114/52
f 67/120/53 71/125/53 69/123/53 65/115/53
f 72/126/54 68/122/54 66/118/54 70/124/54
o Cube.009
v -0.008931 0.015962 0.007150
v -0.011727 0.030838 0.041774
v -0.009408 0.018503 0.006020
v -0.012204 0.033378 0.040644
v 0.033583 0.023953 0.007150
v 0.030787 0.038828 0.041774
v 0.033106 0.026494 0.006020
v 0.030310 0.041369 0.040644
vn -0.9828 -0.1847 -0.0000
vn -0.1693 0.9005 -0.4005
vn 0.9828 0.1847 -0.0000
vn 0.1693 -0.9005 0.4005
vn 0.0740 -0.3937 -0.9163
vn -0.0740 0.3937 0.9163
vt 0.375000 0.000000
vt 0.375000 1.000000
vt 0.125000 0.750000
vt 0.625000 0.000000
vt 0.625000 1.000000
vt 0.875000 0.750000
vt 0.375000 0.250000
vt 0.125000 0.500000
vt 0.625000 0.250000
vt 0.875000 0.500000
vt 0.375000 0.750000
vt 0.625000 0.750000
vt 0.375000 0.500000
vt 0.625000 0.500000
s 0
f 73/127/55 74/130/55 76/135/55 75/133/55
f 75/133/56 76/135/56 80/140/56 79/139/56
f 79/139/57 80/140/57 78/138/57 77/137/57
f 77/137/58 78/138/58 74/131/58 73/128/58
f 75/134/59 79/139/59 77/137/59 73/129/59
f 80/140/60 76/136/60 74/132/60 78/138/60
o Cube.010
v -0.012980 -0.010603 0.007150
v -0.026562 -0.003923 0.041774
v -0.015300 -0.009462 0.006020
v -0.028882 -0.002783 0.040644
v 0.006110 0.028216 0.007150
v -0.007473 0.034895 0.041774
v 0.003790 0.029357 0.006020
v -0.009793 0.036036 0.040644
vn -0.4413 -0.8974 -0.0000
vn -0.8222 0.4043 -0.4005
vn 0.4413 0.8974 -0.0000
vn 0.8222 -0.4043 0.4005
vn 0.3594 -0.1768 -0.9163
vn -0.3594 0.1768 0.9163
vt 0.375000 0.000000
vt 0.375000 1.000000
vt 0.125000 0.750000
vt 0.625000 0.000000
vt 0.625000 1.000000
vt 0.875000 0.750000
vt 0.375000 0.250000
vt 0.125000 0.500000
vt 0.625000 0.250000
vt 0.875000 0.500000
vt 0.375000 0.750000
vt 0.625000 0.750000
vt 0.375000 0.500000
vt 0.625000 0.500000
s 0
f 81/141/61 82/144/61 84/149/61 83/147/61
f 83/147/62 84/149/62 88/154/62 87/153/62
f 87/153/63 88/154/63 86/152/63 85/151/63
f 85/151/64 86/152/64 82/145/64 81/142/64
f 83/148/65 87/153/65 85/151/65 81/143/65
f 88/154/66 84/150/66 82/146/66 86/152/66
o Cube.011
v -0.029276 -0.002616 0.043238
v -0.029276 -0.002616 0.108463
v -0.033645 -0.000467 0.043238
v -0.033645 -0.000467 0.108463
v -0.010186 0.036202 0.043238
v -0.010186 0.036202 0.108463
v -0.014556 0.038351 0.043238
v -0.014556 0.038351 0.108463
vn -0.4413 -0.8974 -0.0000
vn -0.8974 0.4413 -0.0000
vn 0.4413 0.8974 -0.0000
vn 0.8974 -0.4413 -0.0000
vn -0.0000 -0.0000 -1.0000
vn -0.0000 -0.0000 1.0000
vt 0.375000 0.000000
vt 0.375000 1.000000
vt 0.125000 0.750000
vt 0.625000 0.000000
vt 0.625000 1.000000
vt 0.875000 0.750000
vt 0.375000 0.250000
vt 0.125000 0.500000
vt 0.625000 0.250000
vt 0.875000 0.500000
vt 0.375000 0.750000
vt 0.625000 0.750000
vt 0.375000 0.500000
vt 0.625000 0.500000
s 0
f 89/155/67 90/158/67 92/163/67 91/161/67
f 91/161/68 92/163/68 96/168/68 95/167/68
f 95/167/69 96/168/69 94/166/69 93/165/69
f 93/165/70 94/166/70 90/159/70 89/156/70
f 91/162/71 95/167/71 93/165/71 89/157/71
f 96/168/72 92/164/72 90/160/72 94/166/72
o Cube.012
v -0.010891 -0.036215 0.043238
v -0.010891 -0.036215 0.108463
v -0.015232 -0.038423 0.043238
v -0.015232 -0.038423 0.108463
v -0.030507 0.002341 0.043238
v -0.030507 0.002341 0.108463
v -0.034847 0.000133 0.043238
v -0.034847 0.000133 0.108463
vn 0.4534 -0.8913 -0.0000
vn -0.8913 -0.4534 -0.0000
vn -0.4534 0.8913 -0.0000
vn 0.8913 0.4534 -0.0000
vn -0.0000 -0.0000 -1.0000
vn -0.0000 -0.0000 1.0000
vt 0.375000 0.000000
vt 0.375000 1.000000
vt 0.125000 0.750000
vt 0.625000 0.000000
vt 0.625000 1.000000
vt 0.875000 0.750000
vt 0.375000 0.250000
vt 0.125000 0.500000
vt 0.625000 0.250000
vt 0.875000 0.500000
vt 0.375000 0.750000
vt 0.625000 0.750000
vt 0.375000 0.500000
vt 0.625000 0.500000
s 0
f 97/169/73 98/172/73 100/177/73 99/175/73
f 99/175/74 100/177/74 104/182/74 103/181/74
f 103/181/75 104/182/75 102/180/75 101/179/75
f 101/179/76 102/180/76 98/173/76 97/170/76
f 99/176/77 103/181/77 101/179/77 97/171/77
f 104/182/78 100/178/78 98/174/78 102/180/78
o Cube.013
v -0.002356 -0.029419 0.007173
v -0.016549 -0.034606 0.041741
v -0.004763 -0.030298 0.006053
v -0.018956 -0.035486 0.040620
v -0.016029 0.007993 0.007173
v -0.030222 0.002806 0.041741
v -0.018436 0.007113 0.006053
v -0.032629 0.001926 0.040620
vn 0.3433 -0.9392 -0.0000
vn -0.8606 -0.3145 -0.4005
vn -0.3433 0.9392 -0.0000
vn 0.8606 0.3145 0.4005
vn 0.3762 0.1375 -0.9163
vn -0.3762 -0.1375 0.9163
vt 0.375000 0.000000
vt 0.375000 1.000000
vt 0.125000 0.750000
vt 0.625000 0.000000
vt 0.625000 1.000000
vt 0.875000 0.750000
vt 0.375000 0.250000
vt 0.125000 0.500000
vt 0.625000 0.250000
vt 0.875000 0.500000
vt 0.375000 0.750000
vt 0.625000 0.750000
vt 0.375000 0.500000
vt 0.625000 0.500000
s 0
f 105/183/79 106/186/79 108/191/79 107/189/79
f 107/189/80 108/191/80 112/196/80 111/195/80
f 111/195/81 112/196/81 110/194/81 109/193/81
f 109/193/82 110/194/82 106/187/82 105/184/82
f 107/190/83 111/195/83 109/193/83 105/185/83
f 112/196/84 108/192/84 106/188/84 110/194/84
o Cube.014
v 0.030629 -0.032489 0.007159
v 0.026257 -0.046970 0.041761
v 0.029884 -0.034956 0.006032
v 0.025512 -0.049437 0.040635
v -0.008983 -0.020529 0.007159
v -0.013355 -0.035010 0.041761
v -0.009728 -0.022996 0.006032
v -0.014100 -0.037476 0.040635
vn 0.9573 -0.2890 -0.0000
vn -0.2648 -0.8772 -0.4005
vn -0.9573 0.2890 -0.0000
vn 0.2648 0.8772 0.4005
vn 0.1158 0.3835 -0.9163
vn -0.1158 -0.3835 0.9163
vt 0.375000 0.000000
vt 0.375000 1.000000
vt 0.125000 0.750000
vt 0.625000 0.000000
vt 0.625000 1.000000
vt 0.875000 0.750000
vt 0.375000 0.250000
vt 0.125000 0.500000
vt 0.625000 0.250000
vt 0.875000 0.500000
vt 0.375000 0.750000
vt 0.625000 0.750000
vt 0.375000 0.500000
vt 0.625000 0.500000
s 0
f 113/197/85 114/200/85 116/205/85 115/203/85
f 115/203/86 116/205/86 120/210/86 119/209/86
f 119/209/87 120/210/87 118/208/87 117/207/87
f 117/207/88 118/208/88 114/201/88 113/198/88
f 115/204/89 119/209/89 117/207/89 113/199/89
f 120/210/90 116/206/90 114/202/90 118/208/90
o Cube.015
v 0.028182 -0.041276 0.043238
v 0.028182 -0.041276 0.108463
v 0.027342 -0.046072 0.043238
v 0.027342 -0.046072 0.108463
v -0.014428 -0.033814 0.043238
v -0.014428 -0.033814 0.108463
v -0.015268 -0.038610 0.043238
v -0.015268 -0.038610 0.108463
vn 0.9850 -0.1725 -0.0000
vn -0.1725 -0.9850 -0.0000
vn -0.9850 0.1725 -0.0000
vn 0.1725 0.9850 -0.0000
vn -0.0000 -0.0000 -1.0000
vn -0.0000 -0.0000 1.0000
vt 0.375000 0.000000
vt 0.375000 1.000000
vt 0.125000 0.750000
vt 0.625000 0.000000
vt 0.625000 1.000000
vt 0.875000 0.750000
vt 0.375000 0.250000
vt 0.125000 0.500000
vt 0.625000 0.250000
vt 0.875000 0.500000
vt 0.375000 0.750000
vt 0.625000 0.750000
vt 0.375000 0.500000
vt 0.625000 0.500000
s 0
f 121/211/91 122/214/91 124/219/91 123/217/91
f 123/217/92 124/219/92 128/224/92 127/223/92
f 127/223/93 128/224/93 126/222/93 125/221/93
f 125/221/94 126/222/94 122/215/94 121/212/94
f 123/218/95 127/223/95 125/221/95 121/213/95
f 128/224/96 124/220/96 122/216/96 126/222/96
o Cube.016
v 0.056298 -0.016307 0.043238
v 0.056298 -0.016307 0.108463
v 0.059526 -0.019953 0.043238
v 0.059526 -0.019953 0.108463
v 0.023913 -0.044988 0.043238
v 0.023913 -0.044988 0.108463
v 0.027142 -0.048633 0.043238
v 0.027142 -0.048633 0.108463
vn 0.7486 0.6630 -0.0000
vn 0.6630 -0.7486 -0.0000
vn -0.7486 -0.6630 -0.0000
vn -0.6630 0.7486 -0.0000
vn -0.0000 -0.0000 -1.0000
vn -0.0000 -0.0000 1.0000
vt 0.375000 0.000000
vt 0.375000 1.000000
vt 0.125000 0.750000
vt 0.625000 0.000000
vt 0.625000 1.000000
vt 0.875000 0.750000
vt 0.375000 0.250000
vt 0.125000 0.500000
vt 0.625000 0.250000
vt 0.875000 0.500000
vt 0.375000 0.750000
vt 0.625000 0.750000
vt 0.375000 0.500000
vt 0.625000 0.500000
s 0
f 129/225/97 130/228/97 132/233/97 131/231/97
f 131/231/98 132/233/98 136/238/98 135/237/98
f 135/237/99 136/238/99 134/236/99 133/235/99
f 133/235/100 134/236/100 130/229/100 129/226/100
f 131/232/101 135/237/101 133/235/101 129/227/101
f 136/238/102 132/234/102 130/230/102 134/236/102
o Cube.017
v 0.048222 -0.004832 0.007150
v 0.058257 -0.016163 0.041774
v 0.049936 -0.006768 0.006020
v 0.059971 -0.018099 0.040644
v 0.015838 -0.033513 0.007150
v 0.025873 -0.044844 0.041774
v 0.017552 -0.035448 0.006020
v 0.027586 -0.046779 0.040644
vn 0.7486 0.6630 -0.0000
vn 0.6075 -0.6859 -0.4005
vn -0.7486 -0.6630 -0.0000
vn -0.6075 0.6859 0.4005
vn -0.2656 0.2999 -0.9163
vn 0.2656 -0.2999 0.9163
vt 0.375000 0.000000
vt 0.375000 1.000000
vt 0.125000 0.750000
vt 0.625000 0.000000
vt 0.625000 1.000000
vt 0.875000 0.750000
vt 0.375000 0.250000
vt 0.125000 0.500000
vt 0.625000 0.250000
vt 0.875000 0.500000
vt 0.375000 0.750000
vt 0.625000 0.750000
vt 0.375000 0.500000
vt 0.625000 0.500000
s 0
f 137/239/103 138/242/103 140/247/103 139/245/103
f 139/245/104 140/247/104 144/252/104 143/251/104
f 143/251/105 144/252/105 142/250/105 141/249/105
f 141/249/106 142/250/106 138/243/106 137/240/106
f 139/246/107 143/251/107 141/249/107 137/241/107
f 144/252/108 140/248/108 138/244/108 142/250/108
o Cube.018
v -0.000255 -0.020648 0.012813
v -0.000255 -0.020648 0.002391
v 0.030828 -0.020648 0.012813
v 0.030828 -0.020648 0.002391
v -0.000255 -0.027168 0.012813
v -0.000255 -0.027168 0.002391
v 0.030828 -0.027168 0.012813
v 0.030828 -0.027168 0.002391
vn -0.0000 1.0000 -0.0000
vn 1.0000 -0.0000 -0.0000
vn -0.0000 -1.0000 -0.0000
vn -1.0000 -0.0000 -0.0000
vn -0.0000 -0.0000 1.0000
vn -0.0000 -0.0000 -1.0000
vt 0.375000 0.000000
vt 0.375000 1.000000
vt 0.125000 0.750000
vt 0.625000 0.000000
vt 0.625000 1.000000
vt 0.875000 0.750000
vt 0.375000 0.250000
vt 0.125000 0.500000
vt 0.625000 0.250000
vt 0.875000 0.500000
vt 0.375000 0.750000
vt 0.625000 0.750000
vt 0.375000 0.500000
vt 0.625000 0.500000
s 0
f 145/253/109 147/259/109 148/261/109 146/256/109
f 147/259/110 151/265/110 152/266/110 148/261/110
f 151/265/111 149/263/111 150/264/111 152/266/111
f 149/263/112 145/254/112 146/257/112 150/264/112
f 147/260/113 145/255/113 149/263/113 151/265/113
f 152/266/114 150/264/114 146/258/114 148/262/114
o Cube.019
v 0.033892 0.016253 0.012813
v 0.033892 0.016253 0.002391
v 0.041096 0.016253 0.012813
v 0.041096 0.016253 0.002391
v 0.033892 -0.016599 0.012813
v 0.033892 -0.016599 0.002391
v 0.041096 -0.016599 0.012813
v 0.041096 -0.016599 0.002391
vn -0.0000 1.0000 -0.0000
vn 1.0000 -0.0000 -0.0000
vn -0.0000 -1.0000 -0.0000
vn -1.0000 -0.0000 -0.0000
vn -0.0000 -0.0000 1.0000
vn -0.0000 -0.0000 -1.0000
vt 0.375000 0.000000
vt 0.375000 1.000000
vt 0.125000 0.750000
vt 0.625000 0.000000
vt 0.625000 1.000000
vt 0.875000 0.750000
vt 0.375000 0.250000
vt 0.125000 0.500000
vt 0.625000 0.250000
vt 0.875000 0.500000
vt 0.375000 0.750000
vt 0.625000 0.750000
vt 0.375000 0.500000
vt 0.625000 0.500000
s 0
f 153/267/115 155/273/115 156/275/115 154/270/115
f 155/273/116 159/279/116 160/280/116 156/275/116
f 159/279/117 157/277/117 158/278/117 160/280/117
f 157/277/118 153/268/118 154/271/118 158/278/118
f 155/274/119 153/269/119 157/277/119 159/279/119
f 160/280/120 158/278/120 154/272/120 156/276/120
o Cube.020
v -0.008846 0.012211 0.012813
v -0.008846 0.012211 0.002391
v -0.001641 0.012211 0.012813
v -0.001641 0.012211 0.002391
v -0.008846 -0.020641 0.012813
v -0.008846 -0.020641 0.002391
v -0.001641 -0.020641 0.012813
v -0.001641 -0.020641 0.002391
vn -0.0000 1.0000 -0.0000
vn 1.0000 -0.0000 -0.0000
vn -0.0000 -1.0000 -0.0000
vn -1.0000 -0.0000 -0.0000
vn -0.0000 -0.0000 1.0000
vn -0.0000 -0.0000 -1.0000
vt 0.375000 0.000000
vt 0.375000 1.000000
vt 0.125000 0.750000
vt 0.625000 0.000000
vt 0.625000 1.000000
vt 0.875000 0.750000
vt 0.375000 0.250000
vt 0.125000 0.500000
vt 0.625000 0.250000
vt 0.875000 0.500000
vt 0.375000 0.750000
vt 0.625000 0.750000
vt 0.375000 0.500000
vt 0.625000 0.500000
s 0
f 161/281/121 163/287/121 164/289/121 162/284/121
f 163/287/122 167/293/122 168/294/122 164/289/122
f 167/293/123 165/291/123 166/292/123 168/294/123
f 165/291/124 161/282/124 162/285/124 166/292/124
f 163/288/125 161/283/125 165/291/125 167/293/125
f 168/294/126 166/292/126 162/286/126 164/290/126
o Cube.021
v -0.000255 0.022134 0.012813
v -0.000255 0.022134 0.002391
v 0.030828 0.022134 0.012813
v 0.030828 0.022134 0.002391
v -0.000255 0.015613 0.012813
v -0.000255 0.015613 0.002391
v 0.030828 0.015613 0.012813
v 0.030828 0.015613 0.002391
vn -0.0000 1.0000 -0.0000
vn 1.0000 -0.0000 -0.0000
vn -0.0000 -1.0000 -0.0000
vn -1.0000 -0.0000 -0.0000
vn -0.0000 -0.0000 1.0000
vn -0.0000 -0.0000 -1.0000
vt 0.375000 0.000000
vt 0.375000 1.000000
vt 0.125000 0.750000
vt 0.625000 0.000000
vt 0.625000 1.000000
vt 0.875000 0.750000
vt 0.375000 0.250000
vt 0.125000 0.500000
vt 0.625000 0.250000
vt 0.875000 0.500000
vt 0.375000 0.750000
vt 0.625000 0.750000
vt 0.375000 0.500000
vt 0.625000 0.500000
s 0
f 169/295/127 171/301/127 172/303/127 170/298/127
f 171/301/128 175/307/128 176/308/128 172/303/128
f 175/307/129 173/305/129 174/306/129 176/308/129
f 173/305/130 169/296/130 170/299/130 174/306/130
f 171/302/131 169/297/131 173/305/131 175/307/131
f 176/308/132 174/306/132 170/300/132 172/304/132
