# Blender 3.4.1
# www.blender.org
mtllib office_book_shelf.mtl
g Chocofur_Interior_Scene_11.113_Chocofur_Interior_Scene_11.040
v -0.881072 -0.243314 0.000000
v -0.881072 0.206686 0.000000
v -0.881072 0.206686 2.150000
v -0.031072 -0.243314 0.000000
v -0.031072 -0.243314 2.150000
v -0.031072 0.206686 0.000000
v -0.031072 0.206686 2.150000
v -0.851072 0.206686 0.000000
v -0.851072 0.206686 2.150000
v -0.851072 -0.243314 0.000000
v -0.851072 -0.243314 2.150000
v -0.881072 0.206686 0.050000
v -0.031072 0.206686 0.050000
v -0.031072 -0.243314 0.050000
v -0.881072 -0.243314 0.050000
v -0.851072 0.206686 0.050000
v -0.851072 -0.243314 0.050000
v -0.881072 -0.243314 2.120000
v -0.881072 0.206686 2.120000
v -0.031072 0.206686 2.120000
v -0.031072 -0.243314 2.120000
v -0.851072 -0.243314 2.120000
v -0.851072 0.206686 2.120000
v -0.881072 -0.243314 0.448035
v -0.881072 -0.243314 0.411965
v -0.881072 -0.243314 0.878035
v -0.881072 -0.243314 0.841965
v -0.881072 -0.243314 1.308035
v -0.881072 -0.243314 1.271965
v -0.881072 -0.243314 1.738035
v -0.881072 -0.243314 1.701965
v -0.881072 0.206686 1.738035
v -0.881072 0.206686 1.701965
v -0.881072 0.206686 1.308035
v -0.881072 0.206686 1.271965
v -0.881072 0.206686 0.878035
v -0.881072 0.206686 0.841965
v -0.881072 0.206686 0.448035
v -0.881072 0.206686 0.411965
v -0.031072 0.206686 1.701965
v -0.031072 0.206686 1.738035
v -0.031072 0.206686 1.271965
v -0.031072 0.206686 1.308035
v -0.031072 0.206686 0.841965
v -0.031072 0.206686 0.878035
v -0.031072 0.206686 0.411965
v -0.031072 0.206686 0.448035
v -0.031072 -0.243314 1.738035
v -0.031072 -0.243314 1.701965
v -0.031072 -0.243314 1.308035
v -0.031072 -0.243314 1.271965
v -0.031072 -0.243314 0.878035
v -0.031072 -0.243314 0.841965
v -0.031072 -0.243314 0.448035
v -0.031072 -0.243314 0.411965
v -0.851072 -0.243314 0.411965
v -0.851072 -0.243314 0.448035
v -0.851072 -0.243314 0.841965
v -0.851072 -0.243314 0.878035
v -0.851072 -0.243314 1.271965
v -0.851072 -0.243314 1.308035
v -0.851072 -0.243314 1.701965
v -0.851072 -0.243314 1.738035
v -0.851072 0.206686 0.411965
v -0.851072 0.206686 0.448035
v -0.851072 0.206686 0.841965
v -0.851072 0.206686 0.878035
v -0.851072 0.206686 1.271965
v -0.851072 0.206686 1.308035
v -0.851072 0.206686 1.701965
v -0.851072 0.206686 1.738035
v -0.881072 -0.243314 0.600201
v -0.881072 -0.243314 2.561965
v -0.881072 0.206686 0.600201
v -0.881072 0.206686 2.561965
v -0.031072 -0.243314 2.561965
v -0.031072 0.206686 2.561965
v -0.851072 0.206686 2.561965
v -0.851072 -0.243314 2.561965
v -0.881072 -0.243314 2.531965
v -0.881072 0.206686 2.531965
v -0.031072 0.206686 2.531965
v -0.031072 -0.243314 2.531965
v -0.851072 -0.243314 2.531965
v -0.851072 0.206686 2.531965
v -0.881072 -0.243314 2.150000
v -0.021437 -0.243313 0.000000
v -0.021437 0.206687 0.000000
v 0.828563 -0.243313 0.000000
v 0.828563 0.206687 0.000000
v 0.828563 0.206687 2.150000
v 0.008563 0.206687 0.000000
v 0.008563 0.206687 2.150000
v 0.008563 -0.243313 0.000000
v 0.008563 -0.243313 2.150000
v -0.021437 0.206687 0.050000
v 0.828563 0.206687 0.050000
v 0.828563 -0.243313 0.050000
v -0.021437 -0.243313 0.050000
v 0.008563 0.206687 0.050000
v 0.008563 -0.243313 0.050000
v -0.021437 -0.243313 2.120000
v -0.021437 0.206687 2.120000
v 0.828563 0.206687 2.120000
v 0.828563 -0.243313 2.120000
v 0.008563 -0.243313 2.120000
v 0.008563 0.206687 2.120000
v -0.021437 -0.243313 0.448035
v -0.021437 -0.243313 0.411965
v -0.021437 -0.243313 0.878035
v -0.021437 -0.243313 0.841965
v -0.021437 -0.243313 1.308035
v -0.021437 -0.243313 1.271965
v -0.021437 -0.243313 1.738035
v -0.021437 -0.243313 1.701965
v -0.021437 0.206687 1.738035
v -0.021437 0.206687 1.701965
v -0.021437 0.206687 1.308035
v -0.021437 0.206687 1.271965
v -0.021437 0.206687 0.878035
v -0.021437 0.206687 0.841965
v -0.021437 0.206687 0.448035
v -0.021437 0.206687 0.411965
v 0.828563 0.206687 1.701965
v 0.828563 0.206687 1.738035
v 0.828563 0.206687 1.271965
v 0.828563 0.206687 1.308035
v 0.828563 0.206687 0.841965
v 0.828563 0.206687 0.878035
v 0.828563 0.206687 0.411965
v 0.828563 0.206687 0.448035
v 0.828563 -0.243313 1.738035
v 0.828563 -0.243313 1.701965
v 0.828563 -0.243313 1.308035
v 0.828563 -0.243313 1.271965
v 0.828563 -0.243313 0.878035
v 0.828563 -0.243313 0.841965
v 0.828563 -0.243313 0.448035
v 0.828563 -0.243313 0.411965
v 0.008563 -0.243313 0.411965
v 0.008563 -0.243313 0.448035
v 0.008563 -0.243313 0.841965
v 0.008563 -0.243313 0.878035
v 0.008563 -0.243313 1.271965
v 0.008563 -0.243313 1.308035
v 0.008563 -0.243313 1.701965
v 0.008563 -0.243313 1.738035
v 0.008563 0.206687 0.411965
v 0.008563 0.206687 0.448035
v 0.008563 0.206687 0.841965
v 0.008563 0.206687 0.878035
v 0.008563 0.206687 1.271965
v 0.008563 0.206687 1.308035
v 0.008563 0.206687 1.701965
v 0.008563 0.206687 1.738035
v 0.866388 -0.243313 0.000000
v 0.866388 -0.243313 2.150000
v 0.866388 0.206687 0.000000
v 0.866388 0.206687 0.050000
v 0.866388 -0.243313 0.050000
v 0.866388 0.206687 2.120000
v 0.866388 -0.243313 2.120000
v 0.866388 0.206687 1.701965
v 0.866388 0.206687 1.738035
v 0.866388 0.206687 1.271965
v 0.866388 0.206687 1.308035
v 0.866388 0.206687 0.841965
v 0.866388 0.206687 0.878035
v 0.866388 0.206687 0.411965
v 0.866388 0.206687 0.448035
v 0.866388 -0.243313 1.738035
v 0.866388 -0.243313 1.701965
v 0.866388 -0.243313 1.308035
v 0.866388 -0.243313 1.271965
v 0.866388 -0.243313 0.878035
v 0.866388 -0.243313 0.841965
v 0.866388 -0.243313 0.448035
v 0.866388 -0.243313 0.411965
v -0.021437 -0.243313 2.561965
v -0.021437 0.206687 2.561965
v 0.828563 -0.243313 2.561965
v 0.828563 0.206687 2.561965
v 0.008563 0.206687 2.561965
v 0.008563 -0.243313 2.561965
v -0.021437 -0.243313 2.531965
v -0.021437 0.206687 2.531965
v 0.828563 0.206687 2.531965
v 0.828563 -0.243313 2.531965
v 0.008563 -0.243313 2.531965
v 0.008563 0.206687 2.531965
v -0.021437 -0.243313 2.150000
v -0.021437 0.206687 2.150000
v 0.828563 -0.243313 2.150000
v 0.866388 -0.243313 2.561965
v 0.866388 0.206687 2.561965
v 0.866388 0.206687 2.531965
v 0.866388 -0.243313 2.531965
v 0.866388 0.206687 2.150000
vn -1.0000 -0.0000 -0.0000
vn -0.0000 1.0000 -0.0000
vn 1.0000 -0.0000 -0.0000
vn -0.0000 -1.0000 -0.0000
vn -0.0000 -0.0000 -1.0000
vn -0.0000 -0.0000 1.0000
vt 0.125000 0.750000
vt 0.375000 0.000000
vt 0.375000 1.000000
vt 0.125000 0.500000
vt 0.375000 0.250000
vt 0.625000 0.250000
vt 0.577254 0.250000
vt 0.375000 0.750000
vt 0.625000 0.750000
vt 0.375000 0.500000
vt 0.625000 0.500000
vt 0.125000 0.500000
vt 0.375000 0.250000
vt 0.875000 0.500000
vt 0.625000 0.250000
vt 0.577254 0.250000
vt 0.125000 0.750000
vt 0.375000 1.000000
vt 0.875000 0.750000
vt 0.625000 1.000000
vt 0.577254 1.000000
vt 0.375000 0.250000
vt 0.375000 0.500000
vt 0.375000 0.750000
vt 0.375000 1.000000
vt 0.375000 0.000000
vt 0.375000 0.250000
vt 0.375000 1.000000
vt 0.625000 1.000000
vt 0.625000 0.000000
vt 0.625000 0.250000
vt 0.625000 0.500000
vt 0.625000 0.750000
vt 0.625000 1.000000
vt 0.625000 0.250000
vt 0.427097 1.000000
vt 0.427097 0.000000
vt 0.422627 1.000000
vt 0.422627 0.000000
vt 0.477097 1.000000
vt 0.477097 0.000000
vt 0.472903 1.000000
vt 0.472903 0.000000
vt 0.527097 1.000000
vt 0.527097 0.000000
vt 0.522903 1.000000
vt 0.522903 0.000000
vt 0.577254 1.000000
vt 0.577254 0.000000
vt 0.572903 1.000000
vt 0.572903 0.000000
vt 0.577254 0.250000
vt 0.572903 0.250000
vt 0.527097 0.250000
vt 0.522903 0.250000
vt 0.477097 0.250000
vt 0.472903 0.250000
vt 0.427097 0.250000
vt 0.422627 0.250000
vt 0.572903 0.500000
vt 0.577254 0.500000
vt 0.522903 0.500000
vt 0.527097 0.500000
vt 0.472903 0.500000
vt 0.477097 0.500000
vt 0.422627 0.500000
vt 0.427097 0.500000
vt 0.577254 0.750000
vt 0.572903 0.750000
vt 0.527097 0.750000
vt 0.522903 0.750000
vt 0.477097 0.750000
vt 0.472903 0.750000
vt 0.427097 0.750000
vt 0.422627 0.750000
vt 0.422627 1.000000
vt 0.427097 1.000000
vt 0.472903 1.000000
vt 0.477097 1.000000
vt 0.522903 1.000000
vt 0.527097 1.000000
vt 0.572903 1.000000
vt 0.577254 1.000000
vt 0.422627 0.250000
vt 0.427097 0.250000
vt 0.472903 0.250000
vt 0.477097 0.250000
vt 0.522903 0.250000
vt 0.527097 0.250000
vt 0.572903 0.250000
vt 0.577254 0.250000
vt 0.625000 0.000000
vt 0.625000 1.000000
vt 0.875000 0.750000
vt 0.875000 0.500000
vt 0.625000 0.250000
vt 0.625000 0.750000
vt 0.625000 0.500000
vt 0.875000 0.500000
vt 0.625000 0.250000
vt 0.875000 0.750000
vt 0.625000 1.000000
vt 0.625000 1.000000
vt 0.625000 0.000000
vt 0.625000 0.250000
vt 0.625000 0.500000
vt 0.625000 0.750000
vt 0.625000 1.000000
vt 0.625000 0.250000
vt 0.625000 0.000000
vt 0.625000 1.000000
vt 0.577254 1.000000
vt 0.577254 0.000000
vt 0.125000 0.750000
vt 0.375000 0.000000
vt 0.375000 1.000000
vt 0.125000 0.500000
vt 0.375000 0.250000
vt 0.375000 0.750000
vt 0.375000 0.500000
vt 0.625000 0.500000
vt 0.000000 0.000000
vt 0.125000 0.500000
vt 0.375000 0.250000
vt 0.875000 0.500000
vt 0.625000 0.250000
vt 0.577254 0.250000
vt 0.125000 0.750000
vt 0.375000 1.000000
vt 0.875000 0.750000
vt 0.625000 1.000000
vt 0.577254 1.000000
vt 0.375000 0.250000
vt 0.000000 0.000000
vt 0.375000 0.500000
vt 0.000000 0.000000
vt 0.375000 0.750000
vt 0.375000 1.000000
vt 0.375000 0.000000
vt 0.375000 0.250000
vt 0.375000 1.000000
vt 0.625000 1.000000
vt 0.625000 0.000000
vt 0.625000 0.250000
vt 0.000000 0.000000
vt 0.625000 0.500000
vt 0.000000 0.000000
vt 0.625000 0.750000
vt 0.625000 1.000000
vt 0.625000 0.250000
vt 0.427097 1.000000
vt 0.427097 0.000000
vt 0.422627 1.000000
vt 0.422627 0.000000
vt 0.477097 1.000000
vt 0.477097 0.000000
vt 0.472903 1.000000
vt 0.472903 0.000000
vt 0.527097 1.000000
vt 0.527097 0.000000
vt 0.522903 1.000000
vt 0.522903 0.000000
vt 0.577254 1.000000
vt 0.577254 0.000000
vt 0.572903 1.000000
vt 0.572903 0.000000
vt 0.577254 0.250000
vt 0.572903 0.250000
vt 0.527097 0.250000
vt 0.522903 0.250000
vt 0.477097 0.250000
vt 0.472903 0.250000
vt 0.427097 0.250000
vt 0.422627 0.250000
vt 0.572903 0.500000
vt 0.000000 0.000000
vt 0.577254 0.500000
vt 0.000000 0.000000
vt 0.000000 0.000000
vt 0.522903 0.500000
vt 0.000000 0.000000
vt 0.527097 0.500000
vt 0.472903 0.500000
vt 0.000000 0.000000
vt 0.477097 0.500000
vt 0.000000 0.000000
vt 0.000000 0.000000
vt 0.422627 0.500000
vt 0.427097 0.500000
vt 0.000000 0.000000
vt 0.577254 0.750000
vt 0.000000 0.000000
vt 0.572903 0.750000
vt 0.000000 0.000000
vt 0.000000 0.000000
vt 0.527097 0.750000
vt 0.000000 0.000000
vt 0.522903 0.750000
vt 0.477097 0.750000
vt 0.000000 0.000000
vt 0.000000 0.000000
vt 0.472903 0.750000
vt 0.000000 0.000000
vt 0.427097 0.750000
vt 0.000000 0.000000
vt 0.422627 0.750000
vt 0.422627 1.000000
vt 0.427097 1.000000
vt 0.472903 1.000000
vt 0.477097 1.000000
vt 0.522903 1.000000
vt 0.527097 1.000000
vt 0.572903 1.000000
vt 0.577254 1.000000
vt 0.422627 0.250000
vt 0.427097 0.250000
vt 0.472903 0.250000
vt 0.477097 0.250000
vt 0.522903 0.250000
vt 0.527097 0.250000
vt 0.572903 0.250000
vt 0.577254 0.250000
vt 0.375000 0.750000
vt 0.625000 0.750000
vt 0.577254 0.750000
vt 0.000000 0.000000
vt 0.375000 0.500000
vt 0.000000 0.000000
vt 0.375000 0.500000
vt 0.000000 0.000000
vt 0.375000 0.750000
vt 0.000000 0.000000
vt 0.625000 0.500000
vt 0.000000 0.000000
vt 0.625000 0.750000
vt 0.000000 0.000000
vt 0.572903 0.500000
vt 0.000000 0.000000
vt 0.577254 0.500000
vt 0.000000 0.000000
vt 0.522903 0.500000
vt 0.000000 0.000000
vt 0.527097 0.500000
vt 0.000000 0.000000
vt 0.472903 0.500000
vt 0.000000 0.000000
vt 0.477097 0.500000
vt 0.000000 0.000000
vt 0.422627 0.500000
vt 0.000000 0.000000
vt 0.427097 0.500000
vt 0.000000 0.000000
vt 0.577254 0.750000
vt 0.000000 0.000000
vt 0.572903 0.750000
vt 0.000000 0.000000
vt 0.527097 0.750000
vt 0.000000 0.000000
vt 0.522903 0.750000
vt 0.000000 0.000000
vt 0.477097 0.750000
vt 0.000000 0.000000
vt 0.472903 0.750000
vt 0.000000 0.000000
vt 0.427097 0.750000
vt 0.000000 0.000000
vt 0.422627 0.750000
vt 0.625000 0.000000
vt 0.625000 1.000000
vt 0.875000 0.750000
vt 0.875000 0.500000
vt 0.625000 0.250000
vt 0.625000 0.750000
vt 0.625000 0.500000
vt 0.875000 0.500000
vt 0.625000 0.250000
vt 0.875000 0.750000
vt 0.625000 1.000000
vt 0.625000 1.000000
vt 0.625000 0.000000
vt 0.625000 0.250000
vt 0.000000 0.000000
vt 0.625000 0.500000
vt 0.000000 0.000000
vt 0.625000 0.750000
vt 0.625000 1.000000
vt 0.625000 0.250000
vt 0.625000 0.000000
vt 0.625000 1.000000
vt 0.577254 1.000000
vt 0.577254 0.000000
vt 0.625000 0.250000
vt 0.577254 0.250000
vt 0.625000 0.750000
vt 0.000000 0.000000
vt 0.625000 0.750000
vt 0.625000 0.500000
vt 0.000000 0.000000
vt 0.625000 0.500000
vt 0.000000 0.000000
vt 0.625000 0.750000
vt 0.625000 0.500000
vt 0.577254 0.500000
vt 0.000000 0.000000
s 0
g off
g Chocofur_Interior_Scene_11.113_Chocofur_Interior_Scene_11.011
usemtl Chocofur_Interior_Scene_11.011
f 18/30/1 86/110/1 3/6/1 19/31/1
f 23/35/2 9/15/2 7/11/2 20/32/2
f 20/32/3 7/11/3 5/9/3 21/33/3
f 22/34/4 11/20/4 86/111/4 18/29/4
f 8/12/5 6/10/5 4/8/5 10/17/5
f 24/37/1 27/43/1 37/57/1 38/58/1
f 26/41/1 29/47/1 35/55/1 36/56/1
f 28/45/1 31/51/1 33/53/1 34/54/1
f 63/83/4 22/34/4 18/29/4 30/48/4
f 17/28/4 56/76/4 25/38/4 15/25/4
f 57/77/4 58/78/4 27/42/4 24/36/4
f 59/79/4 60/80/4 29/46/4 26/40/4
f 61/81/4 62/82/4 31/50/4 28/44/4
f 36/56/2 35/55/2 68/88/2 67/87/2
f 38/58/2 37/57/2 66/86/2 65/85/2
f 12/22/2 39/59/2 64/84/2 16/27/2
f 7/11/6 9/14/6 11/19/6 5/9/6
f 2/4/5 8/12/5 10/17/5 1/1/5
f 21/33/4 5/9/4 11/20/4 22/34/4
f 19/31/2 3/6/2 9/15/2 23/35/2
f 4/8/4 14/24/4 17/28/4 10/18/4
f 2/5/2 12/22/2 16/27/2 8/13/2
f 1/2/1 15/26/1 12/22/1 2/5/1
f 8/13/2 16/27/2 13/23/2 6/10/2
f 6/10/3 13/23/3 14/24/3 4/8/3
f 10/18/4 17/28/4 15/25/4 1/3/4
f 34/54/2 33/53/2 70/90/2 69/89/2
f 30/49/1 18/30/1 19/31/1 32/52/1
f 32/52/2 19/31/2 23/35/2 71/91/2
f 57/77/4 24/36/4 25/38/4 56/76/4
f 59/79/4 26/40/4 27/42/4 58/78/4
f 61/81/4 28/44/4 29/46/4 60/80/4
f 63/83/4 30/48/4 31/50/4 62/82/4
f 47/67/3 54/74/3 55/75/3 46/66/3
f 45/65/3 52/72/3 53/73/3 44/64/3
f 43/63/3 50/70/3 51/71/3 42/62/3
f 41/61/3 48/68/3 49/69/3 40/60/3
f 65/85/2 47/67/2 46/66/2 64/84/2
f 67/87/2 45/65/2 44/64/2 66/86/2
f 69/89/2 43/63/2 42/62/2 68/88/2
f 71/91/2 41/61/2 40/60/2 70/90/2
f 24/37/1 38/58/1 39/59/1 25/39/1
f 26/41/1 36/56/1 37/57/1 27/43/1
f 28/45/1 34/54/1 35/55/1 29/47/1
f 30/49/1 32/52/1 33/53/1 31/51/1
f 54/74/4 57/77/4 56/76/4 55/75/4
f 52/72/4 59/79/4 58/78/4 53/73/4
f 50/70/4 61/81/4 60/80/4 51/71/4
f 48/68/4 63/83/4 62/82/4 49/69/4
f 38/58/2 65/85/2 64/84/2 39/59/2
f 36/56/2 67/87/2 66/86/2 37/57/2
f 34/54/2 69/89/2 68/88/2 35/55/2
f 32/52/2 71/91/2 70/90/2 33/53/2
f 15/26/1 25/39/1 39/59/1 12/22/1
f 14/24/6 13/23/6 16/27/6 17/28/6
f 17/28/3 16/27/3 64/84/3 56/76/3
f 46/66/5 55/75/5 56/76/5 64/84/5
f 54/74/6 47/67/6 65/85/6 57/77/6
f 57/77/3 65/85/3 66/86/3 58/78/3
f 44/64/5 53/73/5 58/78/5 66/86/5
f 52/72/6 45/65/6 67/87/6 59/79/6
f 59/79/3 67/87/3 68/88/3 60/80/3
f 42/62/5 51/71/5 60/80/5 68/88/5
f 50/70/6 43/63/6 69/89/6 61/81/6
f 61/81/3 69/89/3 70/90/3 62/82/3
f 40/60/5 49/69/5 62/82/5 70/90/5
f 48/68/6 41/61/6 71/91/6 63/83/6
f 63/83/3 71/91/3 23/35/3 22/34/3
f 21/33/5 22/34/5 23/35/5 20/32/5
f 80/104/1 73/92/1 75/96/1 81/105/1
f 85/109/2 78/100/2 77/98/2 82/106/2
f 82/106/3 77/98/3 76/97/3 83/107/3
f 84/108/4 79/102/4 73/93/4 80/103/4
f 78/99/6 75/95/6 73/94/6 79/101/6
f 11/21/4 84/108/4 80/103/4 86/112/4
f 77/98/6 78/99/6 79/101/6 76/97/6
f 83/107/4 76/97/4 79/102/4 84/108/4
f 81/105/2 75/96/2 78/100/2 85/109/2
f 86/113/1 80/104/1 81/105/1 3/7/1
f 3/7/2 81/105/2 85/109/2 9/16/2
f 11/21/3 9/16/3 85/109/3 84/108/3
f 83/107/5 84/108/5 85/109/5 82/106/5
f 102/143/1 191/288/1 192/292/1 103/144/1
f 107/150/2 93/126/2 91/121/2 104/146/2
f 159/229/1 160/231/1 178/267/1 169/249/1
f 106/149/4 95/131/4 191/289/4 102/142/4
f 92/123/5 90/120/5 89/119/5 94/128/5
f 108/152/1 111/158/1 121/172/1 122/173/1
f 110/156/1 113/162/1 119/170/1 120/171/1
f 112/160/1 115/166/1 117/168/1 118/169/1
f 147/214/4 106/149/4 102/142/4 114/163/4
f 101/141/4 140/207/4 109/153/4 99/138/4
f 141/208/4 142/209/4 111/157/4 108/151/4
f 143/210/4 144/211/4 113/161/4 110/155/4
f 145/212/4 146/213/4 115/165/4 112/159/4
f 120/171/2 119/170/2 152/219/2 151/218/2
f 122/173/2 121/172/2 150/217/2 149/216/2
f 96/133/2 123/174/2 148/215/2 100/140/2
f 91/121/6 93/125/6 95/130/6 193/294/6
f 88/117/5 92/123/5 94/128/5 87/114/5
f 105/148/4 193/294/4 95/131/4 106/149/4
f 103/144/2 192/292/2 93/126/2 107/150/2
f 89/119/4 98/137/4 101/141/4 94/129/4
f 88/118/2 96/133/2 100/140/2 92/124/2
f 87/115/1 99/139/1 96/133/1 88/118/1
f 92/124/2 100/140/2 97/135/2 90/120/2
f 130/187/4 97/134/4 159/228/4 169/248/4
f 94/129/4 101/141/4 99/138/4 87/116/4
f 118/169/2 117/168/2 154/221/2 153/220/2
f 114/164/1 102/143/1 103/144/1 116/167/1
f 116/167/2 103/144/2 107/150/2 155/222/2
f 141/208/4 108/151/4 109/153/4 140/207/4
f 143/210/4 110/155/4 111/157/4 142/209/4
f 145/212/4 112/159/4 113/161/4 144/211/4
f 147/214/4 114/163/4 115/165/4 146/213/4
f 130/188/2 131/189/2 170/251/2 169/249/2
f 125/177/6 132/191/6 171/253/6 164/239/6
f 138/203/2 137/201/2 176/262/2 177/264/2
f 124/175/2 125/177/2 164/239/2 163/237/2
f 149/216/2 131/189/2 130/188/2 148/215/2
f 151/218/2 129/185/2 128/183/2 150/217/2
f 153/220/2 127/182/2 126/180/2 152/219/2
f 155/222/2 125/177/2 124/175/2 154/221/2
f 108/152/1 122/173/1 123/174/1 109/154/1
f 110/156/1 120/171/1 121/172/1 111/158/1
f 112/160/1 118/169/1 119/170/1 113/162/1
f 114/164/1 116/167/1 117/168/1 115/166/1
f 138/204/4 141/208/4 140/207/4 139/206/4
f 136/199/4 143/210/4 142/209/4 137/202/4
f 134/196/4 145/212/4 144/211/4 135/198/4
f 132/191/4 147/214/4 146/213/4 133/193/4
f 122/173/2 149/216/2 148/215/2 123/174/2
f 120/171/2 151/218/2 150/217/2 121/172/2
f 118/169/2 153/220/2 152/219/2 119/170/2
f 116/167/2 155/222/2 154/221/2 117/168/2
f 99/139/1 109/154/1 123/174/1 96/133/1
f 98/137/6 97/135/6 100/140/6 101/141/6
f 101/141/3 100/140/3 148/215/3 140/207/3
f 130/188/5 139/206/5 140/207/5 148/215/5
f 138/204/6 131/189/6 149/216/6 141/208/6
f 141/208/3 149/216/3 150/217/3 142/209/3
f 128/183/5 137/202/5 142/209/5 150/217/5
f 136/199/6 129/185/6 151/218/6 143/210/6
f 143/210/3 151/218/3 152/219/3 144/211/3
f 126/180/5 135/198/5 144/211/5 152/219/5
f 134/196/6 127/182/6 153/220/6 145/212/6
f 145/212/3 153/220/3 154/221/3 146/213/3
f 124/175/5 133/193/5 146/213/5 154/221/5
f 132/191/6 125/177/6 155/222/6 147/214/6
f 147/214/3 155/222/3 107/150/3 106/149/3
f 105/148/5 106/149/5 107/150/5 104/146/5
f 170/251/1 177/265/1 176/263/1 167/245/1
f 168/247/1 175/261/1 174/259/1 165/241/1
f 166/243/1 173/257/1 172/255/1 163/237/1
f 162/235/1 161/233/1 164/239/1 171/253/1
f 132/191/4 133/193/4 172/255/4 171/253/4
f 104/146/2 91/121/2 198/302/2 161/233/2
f 131/189/6 138/204/6 177/265/6 170/251/6
f 98/136/2 139/205/2 178/266/2 160/230/2
f 133/193/5 124/175/5 163/237/5 172/255/5
f 193/294/4 105/148/4 162/235/4 157/224/4
f 138/204/4 139/206/4 178/267/4 177/265/4
f 139/206/5 130/188/5 169/249/5 178/267/5
f 128/183/2 129/185/2 168/247/2 167/245/2
f 129/185/6 136/199/6 175/261/6 168/247/6
f 104/145/4 125/178/4 164/238/4 161/232/4
f 90/120/2 97/135/2 159/229/2 158/227/2
f 136/199/4 137/202/4 176/263/4 175/261/4
f 89/119/5 90/120/5 158/227/5 156/223/5
f 132/192/2 105/147/2 162/234/2 171/252/2
f 137/202/5 128/183/5 167/245/5 176/263/5
f 124/176/4 127/181/4 166/242/4 163/236/4
f 105/148/5 104/146/5 161/233/5 162/235/5
f 126/180/2 127/182/2 166/243/2 165/241/2
f 134/195/2 133/194/2 172/254/2 173/256/2
f 98/137/4 89/119/4 156/223/4 160/231/4
f 127/182/6 134/196/6 173/257/6 166/243/6
f 126/179/4 129/186/4 168/246/4 165/240/4
f 134/196/4 135/198/4 174/259/4 173/257/4
f 136/200/2 135/197/2 174/258/2 175/260/2
f 135/198/5 126/180/5 165/241/5 174/259/5
f 97/135/6 98/137/6 160/231/6 159/229/6
f 128/184/4 131/190/4 170/250/4 167/244/4
f 167/245/3 168/247/3 175/261/3 176/263/3
f 169/249/3 170/251/3 177/265/3 178/267/3
f 156/223/3 158/227/3 159/229/3 160/231/3
f 165/241/3 166/243/3 173/257/3 174/259/3
f 163/237/3 164/239/3 171/253/3 172/255/3
f 198/302/3 157/224/3 162/235/3 161/233/3
f 185/280/1 179/268/1 180/272/1 186/281/1
f 190/287/2 183/276/2 182/274/2 187/283/2
f 189/286/4 184/278/4 179/269/4 185/279/4
f 183/275/6 180/271/6 179/270/6 184/277/6
f 95/132/4 189/286/4 185/279/4 191/290/4
f 182/274/6 183/275/6 184/277/6 181/273/6
f 188/285/4 181/273/4 184/278/4 189/286/4
f 186/281/2 180/272/2 183/276/2 190/287/2
f 191/291/1 185/280/1 186/281/1 192/293/1
f 192/293/2 186/281/2 190/287/2 93/127/2
f 95/132/3 93/127/3 190/287/3 189/286/3
f 188/285/5 189/286/5 190/287/5 187/283/5
f 197/301/1 196/299/1 198/303/1 157/225/1
f 187/283/2 182/274/2 195/297/2 196/299/2
f 181/273/4 188/285/4 197/301/4 194/296/4
f 187/282/4 91/122/4 198/304/4 196/298/4
f 193/295/2 188/284/2 197/300/2 157/226/2
f 182/274/6 181/273/6 194/296/6 195/297/6
f 188/285/5 187/283/5 196/299/5 197/301/5
f 195/297/3 194/296/3 197/301/3 196/299/3
l 74 72
