# Blender 3.4.1
# www.blender.org
mtllib desk_caddy_site.mtl
o Cube.right_contain_region
v 0.045518 -0.054159 0.003416
v 0.045518 -0.054159 0.110696
v -0.037099 -0.054159 0.003416
v -0.037099 -0.054159 0.110696
v 0.045518 -0.137034 0.003416
v 0.045518 -0.137034 0.110696
v -0.037099 -0.137034 0.003416
v -0.037099 -0.137034 0.110696
vn -0.0000 1.0000 -0.0000
vn -1.0000 -0.0000 -0.0000
vn -0.0000 -1.0000 -0.0000
vn 1.0000 -0.0000 -0.0000
vn -0.0000 -0.0000 -1.0000
vn -0.0000 -0.0000 1.0000
vt 0.375000 0.000000
vt 0.375000 1.000000
vt 0.125000 0.750000
vt 0.625000 0.000000
vt 0.625000 1.000000
vt 0.875000 0.750000
vt 0.375000 0.250000
vt 0.125000 0.500000
vt 0.625000 0.250000
vt 0.875000 0.500000
vt 0.375000 0.750000
vt 0.625000 0.750000
vt 0.375000 0.500000
vt 0.625000 0.500000
s 0
f 1/1/1 3/7/1 4/9/1 2/4/1
f 3/7/2 7/13/2 8/14/2 4/9/2
f 7/13/3 5/11/3 6/12/3 8/14/3
f 5/11/4 1/2/4 2/5/4 6/12/4
f 3/8/5 1/3/5 5/11/5 7/13/5
f 8/14/6 6/12/6 2/6/6 4/10/6
o Cube.left_contain_region
v 0.045518 0.138446 0.003416
v 0.045518 0.138446 0.110696
v -0.037099 0.138446 0.003416
v -0.037099 0.138446 0.110696
v 0.045518 0.055572 0.003416
v 0.045518 0.055572 0.110696
v -0.037099 0.055572 0.003416
v -0.037099 0.055572 0.110696
vn -0.0000 1.0000 -0.0000
vn -1.0000 -0.0000 -0.0000
vn -0.0000 -1.0000 -0.0000
vn 1.0000 -0.0000 -0.0000
vn -0.0000 -0.0000 -1.0000
vn -0.0000 -0.0000 1.0000
vt 0.375000 0.000000
vt 0.375000 1.000000
vt 0.125000 0.750000
vt 0.625000 0.000000
vt 0.625000 1.000000
vt 0.875000 0.750000
vt 0.375000 0.250000
vt 0.125000 0.500000
vt 0.625000 0.250000
vt 0.875000 0.500000
vt 0.375000 0.750000
vt 0.625000 0.750000
vt 0.375000 0.500000
vt 0.625000 0.500000
s 0
f 9/15/7 11/21/7 12/23/7 10/18/7
f 11/21/8 15/27/8 16/28/8 12/23/8
f 15/27/9 13/25/9 14/26/9 16/28/9
f 13/25/10 9/16/10 10/19/10 14/26/10
f 11/22/11 9/17/11 13/25/11 15/27/11
f 16/28/12 14/26/12 10/20/12 12/24/12
o Cube.back_contain_region
v 0.040933 0.041011 0.003416
v 0.040933 0.041011 0.110696
v 0.003927 0.041011 0.003416
v 0.003927 0.041011 0.110696
v 0.040933 -0.041864 0.003416
v 0.040933 -0.041864 0.110696
v 0.003927 -0.041864 0.003416
v 0.003927 -0.041864 0.110696
vn -0.0000 1.0000 -0.0000
vn -1.0000 -0.0000 -0.0000
vn -0.0000 -1.0000 -0.0000
vn 1.0000 -0.0000 -0.0000
vn -0.0000 -0.0000 -1.0000
vn -0.0000 -0.0000 1.0000
vt 0.375000 0.000000
vt 0.375000 1.000000
vt 0.125000 0.750000
vt 0.625000 0.000000
vt 0.625000 1.000000
vt 0.875000 0.750000
vt 0.375000 0.250000
vt 0.125000 0.500000
vt 0.625000 0.250000
vt 0.875000 0.500000
vt 0.375000 0.750000
vt 0.625000 0.750000
vt 0.375000 0.500000
vt 0.625000 0.500000
s 0
f 17/29/13 19/35/13 20/37/13 18/32/13
f 19/35/14 23/41/14 24/42/14 20/37/14
f 23/41/15 21/39/15 22/40/15 24/42/15
f 21/39/16 17/30/16 18/33/16 22/40/16
f 19/36/17 17/31/17 21/39/17 23/41/17
f 24/42/18 22/40/18 18/34/18 20/38/18
o Cube.front_contain_region
v -0.002176 0.041011 0.003060
v -0.002176 0.041011 0.050991
v -0.039182 0.041011 0.003060
v -0.039182 0.041011 0.050991
v -0.002176 -0.041864 0.003060
v -0.002176 -0.041864 0.050991
v -0.039182 -0.041864 0.003060
v -0.039182 -0.041864 0.050991
vn -0.0000 1.0000 -0.0000
vn -1.0000 -0.0000 -0.0000
vn -0.0000 -1.0000 -0.0000
vn 1.0000 -0.0000 -0.0000
vn -0.0000 -0.0000 -1.0000
vn -0.0000 -0.0000 1.0000
vt 0.375000 0.000000
vt 0.375000 1.000000
vt 0.125000 0.750000
vt 0.625000 0.000000
vt 0.625000 1.000000
vt 0.875000 0.750000
vt 0.375000 0.250000
vt 0.125000 0.500000
vt 0.625000 0.250000
vt 0.875000 0.500000
vt 0.375000 0.750000
vt 0.625000 0.750000
vt 0.375000 0.500000
vt 0.625000 0.500000
s 0
f 25/43/19 27/49/19 28/51/19 26/46/19
f 27/49/20 31/55/20 32/56/20 28/51/20
f 31/55/21 29/53/21 30/54/21 32/56/21
f 29/53/22 25/44/22 26/47/22 30/54/22
f 27/50/23 25/45/23 29/53/23 31/55/23
f 32/56/24 30/54/24 26/48/24 28/52/24
