# Blender 3.3.0
# www.blender.org
mtllib wine_bottle_red_logo.mtl
o Wine_Bottle_Red_Label_Cylinder.011
v 0.030491 -0.030591 0.014096
v 0.023956 -0.035953 0.014096
v 0.016501 -0.039938 0.014096
v 0.008412 -0.042392 0.014096
v 0.000000 -0.043220 0.014096
v -0.008412 -0.042392 0.014096
v -0.016501 -0.039938 0.014096
v -0.023956 -0.035953 0.014096
v -0.030491 -0.030591 0.014096
v 0.030434 -0.030534 0.111291
v 0.023912 -0.035887 0.111291
v 0.016471 -0.039865 0.111291
v 0.008397 -0.042314 0.111291
v -0.000000 -0.043141 0.111291
v -0.008397 -0.042314 0.111291
v -0.016471 -0.039864 0.111291
v -0.023912 -0.035887 0.111291
v -0.030434 -0.030534 0.111291
v 0.030058 -0.030158 0.120801
v 0.023616 -0.035444 0.120801
v 0.016267 -0.039373 0.120801
v 0.008293 -0.041791 0.120801
v -0.000000 -0.042608 0.120801
v -0.008293 -0.041791 0.120801
v -0.016267 -0.039373 0.120801
v -0.023616 -0.035444 0.120801
v -0.030058 -0.030158 0.120801
vn 0.6344 -0.7730 0.0008
vn 0.6341 -0.7727 0.0282
vn 0.5554 -0.8311 0.0283
vn 0.5556 -0.8315 0.0008
vn 0.3825 -0.9235 0.0283
vn 0.3827 -0.9239 0.0008
vn 0.1950 -0.9804 0.0283
vn 0.1951 -0.9808 0.0008
vn -0.0000 -0.9996 0.0284
vn -0.0000 -1.0000 0.0008
vn -0.1950 -0.9804 0.0283
vn -0.1951 -0.9808 0.0008
vn -0.3825 -0.9235 0.0283
vn -0.3827 -0.9239 0.0008
vn -0.5553 -0.8311 0.0283
vn -0.5556 -0.8315 0.0008
vn -0.6341 -0.7727 0.0282
vn -0.6344 -0.7730 0.0008
vn 0.6334 -0.7718 0.0556
vn 0.5547 -0.8301 0.0559
vn 0.3821 -0.9224 0.0559
vn 0.1948 -0.9793 0.0560
vn -0.0000 -0.9984 0.0560
vn -0.1948 -0.9792 0.0559
vn -0.3821 -0.9224 0.0559
vn -0.5547 -0.8302 0.0559
vn -0.6334 -0.7718 0.0556
vt 0.999927 -0.092986
vt 0.875327 -0.094230
vt 0.750273 -0.095237
vt 0.625237 -0.095850
vt 0.500213 -0.096039
vt 0.375196 -0.095798
vt 0.250182 -0.095128
vt 0.125155 -0.094037
vt 0.000073 -0.092563
vt 0.995044 0.886842
vt 0.870555 0.884157
vt 0.746818 0.882736
vt 0.623334 0.881983
vt 0.499942 0.881741
vt 0.376596 0.881987
vt 0.253293 0.882788
vt 0.130028 0.884389
vt 0.006295 0.887353
vt 0.993199 0.934623
vt 0.869677 0.931656
vt 0.746346 0.930127
vt 0.623101 0.929333
vt 0.499903 0.929068
vt 0.376754 0.929288
vt 0.253700 0.930039
vt 0.130876 0.931537
vt 0.008254 0.934625
s 1
usemtl Material.002
f 1/1/1 10/10/2 11/11/3 2/2/4
f 2/2/4 11/11/3 12/12/5 3/3/6
f 3/3/6 12/12/5 13/13/7 4/4/8
f 4/4/8 13/13/7 14/14/9 5/5/10
f 5/5/10 14/14/9 15/15/11 6/6/12
f 6/6/12 15/15/11 16/16/13 7/7/14
f 7/7/14 16/16/13 17/17/15 8/8/16
f 8/8/16 17/17/15 18/18/17 9/9/18
f 10/10/2 19/19/19 20/20/20 11/11/3
f 11/11/3 20/20/20 21/21/21 12/12/5
f 12/12/5 21/21/21 22/22/22 13/13/7
f 13/13/7 22/22/22 23/23/23 14/14/9
f 14/14/9 23/23/23 24/24/24 15/15/11
f 15/15/11 24/24/24 25/25/25 16/16/13
f 16/16/13 25/25/25 26/26/26 17/17/15
f 17/17/15 26/26/26 27/27/27 18/18/17
