# Blender 3.3.0
# www.blender.org
mtllib basket_col.mtl
o Cube
v 0.079048 -0.072400 0.021945
v 0.079130 -0.072400 0.004939
v -0.074117 -0.072400 0.021212
v -0.074035 -0.072400 0.004207
v 0.079048 0.072400 0.021945
v 0.079130 0.072400 0.004939
v -0.074117 0.072400 0.021212
v -0.074035 0.072400 0.004207
vn -0.0000 -1.0000 -0.0000
vn -1.0000 -0.0000 -0.0048
vn -0.0000 1.0000 -0.0000
vn 1.0000 -0.0000 0.0048
vn -0.0048 -0.0000 1.0000
vn 0.0048 -0.0000 -1.0000
vt 0.375000 0.000000
vt 0.375000 1.000000
vt 0.125000 0.750000
vt 0.625000 0.000000
vt 0.625000 1.000000
vt 0.875000 0.750000
vt 0.375000 0.250000
vt 0.125000 0.500000
vt 0.625000 0.250000
vt 0.875000 0.500000
vt 0.375000 0.750000
vt 0.625000 0.750000
vt 0.375000 0.500000
vt 0.625000 0.500000
s 0
f 1/1/1 3/7/1 4/9/1 2/4/1
f 3/7/2 7/13/2 8/14/2 4/9/2
f 7/13/3 5/11/3 6/12/3 8/14/3
f 5/11/4 1/2/4 2/5/4 6/12/4
f 3/8/5 1/3/5 5/11/5 7/13/5
f 8/14/6 6/12/6 2/6/6 4/10/6
o Cube.001
v -0.061189 -0.072400 0.013579
v -0.074500 -0.072400 0.012571
v -0.070806 -0.072400 0.140567
v -0.084117 -0.072400 0.139559
v -0.061189 0.072400 0.013579
v -0.074500 0.072400 0.012571
v -0.070806 0.072400 0.140567
v -0.084117 0.072400 0.139559
vn -0.0000 -1.0000 -0.0000
vn -0.0755 -0.0000 0.9971
vn -0.0000 1.0000 -0.0000
vn 0.0755 -0.0000 -0.9971
vn 0.9971 -0.0000 0.0755
vn -0.9971 -0.0000 -0.0755
vt 0.375000 0.000000
vt 0.375000 1.000000
vt 0.125000 0.750000
vt 0.625000 0.000000
vt 0.625000 1.000000
vt 0.875000 0.750000
vt 0.375000 0.250000
vt 0.125000 0.500000
vt 0.625000 0.250000
vt 0.875000 0.500000
vt 0.375000 0.750000
vt 0.625000 0.750000
vt 0.375000 0.500000
vt 0.625000 0.500000
s 0
f 9/15/7 11/21/7 12/23/7 10/18/7
f 11/21/8 15/27/8 16/28/8 12/23/8
f 15/27/9 13/25/9 14/26/9 16/28/9
f 13/25/10 9/16/10 10/19/10 14/26/10
f 11/22/11 9/17/11 13/25/11 15/27/11
f 16/28/12 14/26/12 10/20/12 12/24/12
o Cube.002
v -0.071909 -0.072813 0.017855
v -0.071992 -0.059477 0.018455
v -0.071873 -0.078530 0.145078
v -0.071956 -0.065194 0.145677
v 0.072888 -0.071904 0.017855
v 0.072805 -0.058568 0.018455
v 0.072924 -0.077621 0.145078
v 0.072840 -0.064285 0.145677
vn -1.0000 -0.0063 -0.0000
vn 0.0003 -0.0449 0.9990
vn 1.0000 0.0063 -0.0000
vn -0.0003 0.0449 -0.9990
vn 0.0063 -0.9990 -0.0449
vn -0.0063 0.9990 0.0449
vt 0.375000 0.000000
vt 0.375000 1.000000
vt 0.125000 0.750000
vt 0.625000 0.000000
vt 0.625000 1.000000
vt 0.875000 0.750000
vt 0.375000 0.250000
vt 0.125000 0.500000
vt 0.625000 0.250000
vt 0.875000 0.500000
vt 0.375000 0.750000
vt 0.625000 0.750000
vt 0.375000 0.500000
vt 0.625000 0.500000
s 0
f 17/29/13 19/35/13 20/37/13 18/32/13
f 19/35/14 23/41/14 24/42/14 20/37/14
f 23/41/15 21/39/15 22/40/15 24/42/15
f 21/39/16 17/30/16 18/33/16 22/40/16
f 19/36/17 17/31/17 21/39/17 23/41/17
f 24/42/18 22/40/18 18/34/18 20/38/18
o Cube.003
v 0.072185 0.073095 0.017855
v 0.072221 0.059759 0.018455
v 0.072169 0.078813 0.145078
v 0.072206 0.065477 0.145677
v -0.072615 0.072696 0.017855
v -0.072578 0.059360 0.018455
v -0.072630 0.078414 0.145078
v -0.072594 0.065078 0.145677
vn 1.0000 0.0028 -0.0000
vn -0.0001 0.0449 0.9990
vn -1.0000 -0.0028 -0.0000
vn 0.0001 -0.0449 -0.9990
vn -0.0028 0.9990 -0.0449
vn 0.0028 -0.9990 0.0449
vt 0.375000 0.000000
vt 0.375000 1.000000
vt 0.125000 0.750000
vt 0.625000 0.000000
vt 0.625000 1.000000
vt 0.875000 0.750000
vt 0.375000 0.250000
vt 0.125000 0.500000
vt 0.625000 0.250000
vt 0.875000 0.500000
vt 0.375000 0.750000
vt 0.625000 0.750000
vt 0.375000 0.500000
vt 0.625000 0.500000
s 0
f 25/43/19 27/49/19 28/51/19 26/46/19
f 27/49/20 31/55/20 32/56/20 28/51/20
f 31/55/21 29/53/21 30/54/21 32/56/21
f 29/53/22 25/44/22 26/47/22 30/54/22
f 27/50/23 25/45/23 29/53/23 31/55/23
f 32/56/24 30/54/24 26/48/24 28/52/24
o Cube.004
v 0.079061 -0.072400 0.012640
v 0.065728 -0.072400 0.013306
v 0.085418 -0.072400 0.139832
v 0.072085 -0.072400 0.140498
v 0.079061 0.072400 0.012640
v 0.065728 0.072400 0.013306
v 0.085418 0.072400 0.139832
v 0.072085 0.072400 0.140498
vn -0.0000 -1.0000 -0.0000
vn 0.0499 -0.0000 0.9988
vn -0.0000 1.0000 -0.0000
vn -0.0499 -0.0000 -0.9988
vn 0.9988 -0.0000 -0.0499
vn -0.9988 -0.0000 0.0499
vt 0.375000 0.000000
vt 0.375000 1.000000
vt 0.125000 0.750000
vt 0.625000 0.000000
vt 0.625000 1.000000
vt 0.875000 0.750000
vt 0.375000 0.250000
vt 0.125000 0.500000
vt 0.625000 0.250000
vt 0.875000 0.500000
vt 0.375000 0.750000
vt 0.625000 0.750000
vt 0.375000 0.500000
vt 0.625000 0.500000
s 0
f 33/57/25 35/63/25 36/65/25 34/60/25
f 35/63/26 39/69/26 40/70/26 36/65/26
f 39/69/27 37/67/27 38/68/27 40/70/27
f 37/67/28 33/58/28 34/61/28 38/68/28
f 35/64/29 33/59/29 37/67/29 39/69/29
f 40/70/30 38/68/30 34/62/30 36/66/30
