# Blender v3.2.2 OBJ File: 'glazed_rim_porcelain_ramekin_col.blend'
# www.blender.org
mtllib glazed_rim_porcelain_ramekin_col.mtl
o Cube_Cube.001
v -0.024357 0.024357 0.007318
v -0.024357 0.024357 0.000939
v 0.024357 0.024357 0.007318
v 0.024357 0.024357 0.000939
v -0.024357 -0.024357 0.007318
v -0.024357 -0.024357 0.000939
v 0.024357 -0.024357 0.007318
v 0.024357 -0.024357 0.000939
vt 0.375000 0.000000
vt 0.375000 0.250000
vt 0.625000 0.250000
vt 0.625000 0.000000
vt 0.375000 0.500000
vt 0.625000 0.500000
vt 0.375000 0.750000
vt 0.625000 0.750000
vt 0.375000 1.000000
vt 0.625000 1.000000
vt 0.125000 0.500000
vt 0.125000 0.750000
vt 0.875000 0.750000
vt 0.875000 0.500000
vn 0.0000 1.0000 0.0000
vn 1.0000 0.0000 0.0000
vn 0.0000 -1.0000 0.0000
vn -1.0000 0.0000 0.0000
vn 0.0000 0.0000 1.0000
vn 0.0000 0.0000 -1.0000
usemtl None
s off
f 1/1/1 3/2/1 4/3/1 2/4/1
f 3/2/2 7/5/2 8/6/2 4/3/2
f 7/5/3 5/7/3 6/8/3 8/6/3
f 5/7/4 1/9/4 2/10/4 6/8/4
f 3/11/5 1/12/5 5/7/5 7/5/5
f 8/6/6 6/8/6 2/13/6 4/14/6
o Cube.001_Cube.002
v 0.009479 -0.043905 0.041894
v 0.009479 -0.037701 0.000652
v -0.009479 -0.043905 0.041894
v -0.009479 -0.037701 0.000652
v 0.009479 -0.038771 0.042666
v 0.009479 -0.032567 0.001424
v -0.009479 -0.038771 0.042666
v -0.009479 -0.032567 0.001424
vt 0.375000 0.000000
vt 0.375000 0.250000
vt 0.625000 0.250000
vt 0.625000 0.000000
vt 0.375000 0.500000
vt 0.625000 0.500000
vt 0.375000 0.750000
vt 0.625000 0.750000
vt 0.375000 1.000000
vt 0.625000 1.000000
vt 0.125000 0.500000
vt 0.125000 0.750000
vt 0.875000 0.750000
vt 0.875000 0.500000
vn 0.0000 -0.9889 -0.1488
vn -1.0000 -0.0000 0.0000
vn 0.0000 0.9889 0.1488
vn 1.0000 -0.0000 0.0000
vn 0.0000 -0.1488 0.9889
vn 0.0000 0.1488 -0.9889
usemtl None
s off
f 9/15/7 11/16/7 12/17/7 10/18/7
f 11/16/8 15/19/8 16/20/8 12/17/8
f 15/19/9 13/21/9 14/22/9 16/20/9
f 13/21/10 9/23/10 10/24/10 14/22/10
f 11/25/11 9/26/11 13/21/11 15/19/11
f 16/20/12 14/22/12 10/27/12 12/28/12
o Cube.002_Cube.003
v -0.010657 0.043634 0.041894
v -0.010490 0.037432 0.000652
v 0.008295 0.044144 0.041894
v 0.008462 0.037942 0.000652
v -0.010519 0.038502 0.042666
v -0.010352 0.032300 0.001424
v 0.008433 0.039012 0.042666
v 0.008600 0.032810 0.001424
vt 0.375000 0.000000
vt 0.375000 0.250000
vt 0.625000 0.250000
vt 0.625000 0.000000
vt 0.375000 0.500000
vt 0.625000 0.500000
vt 0.375000 0.750000
vt 0.625000 0.750000
vt 0.375000 1.000000
vt 0.625000 1.000000
vt 0.125000 0.500000
vt 0.125000 0.750000
vt 0.875000 0.750000
vt 0.875000 0.500000
vn -0.0266 0.9885 -0.1488
vn 0.9996 0.0269 0.0000
vn 0.0266 -0.9885 0.1488
vn -0.9996 -0.0269 -0.0000
vn -0.0040 0.1487 0.9889
vn 0.0040 -0.1487 -0.9889
usemtl None
s off
f 17/29/13 19/30/13 20/31/13 18/32/13
f 19/30/14 23/33/14 24/34/14 20/31/14
f 23/33/15 21/35/15 22/36/15 24/34/15
f 21/35/16 17/37/16 18/38/16 22/36/16
f 19/39/17 17/40/17 21/35/17 23/33/17
f 24/34/18 22/36/18 18/41/18 20/42/18
o Cube.003_Cube.004
v 0.043728 0.010265 0.041894
v 0.037525 0.010154 0.000652
v 0.044068 -0.008691 0.041894
v 0.037865 -0.008802 0.000652
v 0.038595 0.010173 0.042666
v 0.032392 0.010062 0.001424
v 0.038935 -0.008783 0.042666
v 0.032732 -0.008894 0.001424
vt 0.375000 0.000000
vt 0.375000 0.250000
vt 0.625000 0.250000
vt 0.625000 0.000000
vt 0.375000 0.500000
vt 0.625000 0.500000
vt 0.375000 0.750000
vt 0.625000 0.750000
vt 0.375000 1.000000
vt 0.625000 1.000000
vt 0.125000 0.500000
vt 0.125000 0.750000
vt 0.875000 0.750000
vt 0.875000 0.500000
vn 0.9887 0.0177 -0.1488
vn 0.0179 -0.9998 0.0000
vn -0.9887 -0.0177 0.1488
vn -0.0179 0.9998 -0.0000
vn 0.1487 0.0027 0.9889
vn -0.1487 -0.0027 -0.9889
usemtl None
s off
f 25/43/19 27/44/19 28/45/19 26/46/19
f 27/44/20 31/47/20 32/48/20 28/45/20
f 31/47/21 29/49/21 30/50/21 32/48/21
f 29/49/22 25/51/22 26/52/22 30/50/22
f 27/53/23 25/54/23 29/49/23 31/47/23
f 32/48/24 30/50/24 26/55/24 28/56/24
o Cube.004_Cube.005
v -0.043796 -0.009972 0.041894
v -0.037592 -0.009902 0.000652
v -0.044009 0.008986 0.041894
v -0.037805 0.009055 0.000652
v -0.038662 -0.009914 0.042666
v -0.032458 -0.009844 0.001424
v -0.038875 0.009043 0.042666
v -0.032671 0.009113 0.001424
vt 0.375000 0.000000
vt 0.375000 0.250000
vt 0.625000 0.250000
vt 0.625000 0.000000
vt 0.375000 0.500000
vt 0.625000 0.500000
vt 0.375000 0.750000
vt 0.625000 0.750000
vt 0.375000 1.000000
vt 0.625000 1.000000
vt 0.125000 0.500000
vt 0.125000 0.750000
vt 0.875000 0.750000
vt 0.875000 0.500000
vn -0.9888 -0.0111 -0.1488
vn -0.0112 0.9999 -0.0000
vn 0.9888 0.0111 0.1488
vn 0.0112 -0.9999 0.0000
vn -0.1487 -0.0017 0.9889
vn 0.1487 0.0017 -0.9889
usemtl None
s off
f 33/57/25 35/58/25 36/59/25 34/60/25
f 35/58/26 39/61/26 40/62/26 36/59/26
f 39/61/27 37/63/27 38/64/27 40/62/27
f 37/63/28 33/65/28 34/66/28 38/64/28
f 35/67/29 33/68/29 37/63/29 39/61/29
f 40/62/30 38/64/30 34/69/30 36/70/30
o Cube.005_Cube.006
v -0.043796 -0.009972 0.041894
v -0.037592 -0.009902 0.000652
v -0.044009 0.008986 0.041894
v -0.037805 0.009055 0.000652
v -0.038662 -0.009914 0.042666
v -0.032458 -0.009844 0.001424
v -0.038875 0.009043 0.042666
v -0.032671 0.009113 0.001424
vt 0.375000 0.000000
vt 0.375000 0.250000
vt 0.625000 0.250000
vt 0.625000 0.000000
vt 0.375000 0.500000
vt 0.625000 0.500000
vt 0.375000 0.750000
vt 0.625000 0.750000
vt 0.375000 1.000000
vt 0.625000 1.000000
vt 0.125000 0.500000
vt 0.125000 0.750000
vt 0.875000 0.750000
vt 0.875000 0.500000
vn -0.9888 -0.0111 -0.1488
vn -0.0112 0.9999 -0.0000
vn 0.9888 0.0111 0.1488
vn 0.0112 -0.9999 0.0000
vn -0.1487 -0.0017 0.9889
vn 0.1487 0.0017 -0.9889
usemtl None
s off
f 41/71/31 43/72/31 44/73/31 42/74/31
f 43/72/32 47/75/32 48/76/32 44/73/32
f 47/75/33 45/77/33 46/78/33 48/76/33
f 45/77/34 41/79/34 42/80/34 46/78/34
f 43/81/35 41/82/35 45/77/35 47/75/35
f 48/76/36 46/78/36 42/83/36 44/84/36
o Cube.006_Cube.007
v -0.036115 -0.026707 0.041894
v -0.030460 -0.024154 0.000652
v -0.043916 -0.009427 0.041894
v -0.038262 -0.006874 0.000652
v -0.031435 -0.024594 0.042666
v -0.025781 -0.022041 0.001424
v -0.039237 -0.007315 0.042666
v -0.033583 -0.004762 0.001424
vt 0.375000 0.000000
vt 0.375000 0.250000
vt 0.625000 0.250000
vt 0.625000 0.000000
vt 0.375000 0.500000
vt 0.625000 0.500000
vt 0.375000 0.750000
vt 0.625000 0.750000
vt 0.375000 1.000000
vt 0.625000 1.000000
vt 0.125000 0.500000
vt 0.125000 0.750000
vt 0.875000 0.750000
vt 0.875000 0.500000
vn -0.9013 -0.4069 -0.1488
vn -0.4115 0.9114 0.0000
vn 0.9013 0.4069 0.1488
vn 0.4115 -0.9114 -0.0000
vn -0.1356 -0.0612 0.9889
vn 0.1356 0.0612 -0.9889
usemtl None
s off
f 49/85/37 51/86/37 52/87/37 50/88/37
f 51/86/38 55/89/38 56/90/38 52/87/38
f 55/89/39 53/91/39 54/92/39 56/90/39
f 53/91/40 49/93/40 50/94/40 54/92/40
f 51/95/41 49/96/41 53/91/41 55/89/41
f 56/90/42 54/92/42 50/97/42 52/98/42
o Cube.007_Cube.008
v -0.023229 -0.038443 0.041894
v -0.018973 -0.033930 0.000652
v -0.037021 -0.025435 0.041894
v -0.032764 -0.020922 0.000652
v -0.019707 -0.034709 0.042666
v -0.015450 -0.030195 0.001424
v -0.033498 -0.021700 0.042666
v -0.029242 -0.017187 0.001424
vt 0.375000 0.000000
vt 0.375000 0.250000
vt 0.625000 0.250000
vt 0.625000 0.000000
vt 0.375000 0.500000
vt 0.625000 0.500000
vt 0.375000 0.750000
vt 0.625000 0.750000
vt 0.375000 1.000000
vt 0.625000 1.000000
vt 0.125000 0.500000
vt 0.125000 0.750000
vt 0.875000 0.750000
vt 0.875000 0.500000
vn -0.6785 -0.7194 -0.1488
vn -0.7275 0.6861 -0.0000
vn 0.6785 0.7194 0.1488
vn 0.7275 -0.6861 -0.0000
vn -0.1021 -0.1082 0.9889
vn 0.1021 0.1082 -0.9889
usemtl None
s off
f 57/99/43 59/100/43 60/101/43 58/102/43
f 59/100/44 63/103/44 64/104/44 60/101/44
f 63/103/45 61/105/45 62/106/45 64/104/45
f 61/105/46 57/107/46 58/108/46 62/106/46
f 59/109/47 57/110/47 61/105/47 63/103/47
f 64/104/48 62/106/48 58/111/48 60/112/48
o Cube.008_Cube.009
v -0.006658 -0.044420 0.041894
v -0.004465 -0.038617 0.000652
v -0.024392 -0.037716 0.041894
v -0.022198 -0.031913 0.000652
v -0.004843 -0.039618 0.042666
v -0.002649 -0.033815 0.001424
v -0.022577 -0.032914 0.042666
v -0.020383 -0.027111 0.001424
vt 0.375000 0.000000
vt 0.375000 0.250000
vt 0.625000 0.250000
vt 0.625000 0.000000
vt 0.375000 0.500000
vt 0.625000 0.500000
vt 0.375000 0.750000
vt 0.625000 0.750000
vt 0.375000 1.000000
vt 0.625000 1.000000
vt 0.125000 0.500000
vt 0.125000 0.750000
vt 0.875000 0.750000
vt 0.875000 0.500000
vn -0.3497 -0.9250 -0.1488
vn -0.9354 0.3536 -0.0000
vn 0.3497 0.9250 0.1488
vn 0.9354 -0.3536 0.0000
vn -0.0526 -0.1391 0.9889
vn 0.0526 0.1391 -0.9889
usemtl None
s off
f 65/113/49 67/114/49 68/115/49 66/116/49
f 67/114/50 71/117/50 72/118/50 68/115/50
f 71/117/51 69/119/51 70/120/51 72/118/51
f 69/119/52 65/121/52 66/122/52 70/120/52
f 67/123/53 65/124/53 69/119/53 71/117/53
f 72/118/54 70/120/54 66/125/54 68/126/54
o Cube.009_Cube.010
v 0.027603 -0.035435 0.041894
v 0.024909 -0.029846 0.000652
v 0.010524 -0.043666 0.041894
v 0.007830 -0.038078 0.000652
v 0.025373 -0.030810 0.042666
v 0.022680 -0.025221 0.001424
v 0.008295 -0.039041 0.042666
v 0.005601 -0.033453 0.001424
vt 0.375000 0.000000
vt 0.375000 0.250000
vt 0.625000 0.250000
vt 0.625000 0.000000
vt 0.375000 0.500000
vt 0.625000 0.500000
vt 0.375000 0.750000
vt 0.625000 0.750000
vt 0.375000 1.000000
vt 0.625000 1.000000
vt 0.125000 0.500000
vt 0.125000 0.750000
vt 0.875000 0.750000
vt 0.875000 0.500000
vn 0.4294 -0.8908 -0.1488
vn -0.9008 -0.4342 0.0000
vn -0.4294 0.8908 0.1488
vn 0.9008 0.4342 0.0000
vn 0.0646 -0.1340 0.9889
vn -0.0646 0.1340 -0.9889
usemtl None
s off
f 73/127/55 75/128/55 76/129/55 74/130/55
f 75/128/56 79/131/56 80/132/56 76/129/56
f 79/131/57 77/133/57 78/134/57 80/132/57
f 77/133/58 73/135/58 74/136/58 78/134/58
f 75/137/59 73/138/59 77/133/59 79/131/59
f 80/132/60 78/134/60 74/139/60 76/140/60
o Cube.010_Cube.011
v 0.039894 -0.020639 0.041894
v 0.035110 -0.016690 0.000652
v 0.027825 -0.035260 0.041894
v 0.023041 -0.031311 0.000652
v 0.035935 -0.017371 0.042666
v 0.031150 -0.013421 0.001424
v 0.023866 -0.031992 0.042666
v 0.019081 -0.028042 0.001424
vt 0.375000 0.000000
vt 0.375000 0.250000
vt 0.625000 0.250000
vt 0.625000 0.000000
vt 0.375000 0.500000
vt 0.625000 0.500000
vt 0.375000 0.750000
vt 0.625000 0.750000
vt 0.375000 1.000000
vt 0.625000 1.000000
vt 0.125000 0.500000
vt 0.125000 0.750000
vt 0.875000 0.750000
vt 0.875000 0.500000
vn 0.7626 -0.6295 -0.1488
vn -0.6366 -0.7712 -0.0000
vn -0.7626 0.6295 0.1488
vn 0.6366 0.7712 0.0000
vn 0.1147 -0.0947 0.9889
vn -0.1147 0.0947 -0.9889
usemtl None
s off
f 81/141/61 83/142/61 84/143/61 82/144/61
f 83/142/62 87/145/62 88/146/62 84/143/62
f 87/145/63 85/147/63 86/148/63 88/146/63
f 85/147/64 81/149/64 82/150/64 86/148/64
f 83/151/65 81/152/65 85/147/65 87/145/65
f 88/146/66 86/148/66 82/153/66 84/154/66
o Cube.011_Cube.012
v 0.044648 -0.004902 0.041894
v 0.038763 -0.002938 0.000652
v 0.038649 -0.022886 0.041894
v 0.032764 -0.020923 0.000652
v 0.039778 -0.003277 0.042666
v 0.033893 -0.001314 0.001424
v 0.033779 -0.021261 0.042666
v 0.027894 -0.019298 0.001424
vt 0.375000 0.000000
vt 0.375000 0.250000
vt 0.625000 0.250000
vt 0.625000 0.000000
vt 0.375000 0.500000
vt 0.625000 0.500000
vt 0.375000 0.750000
vt 0.625000 0.750000
vt 0.375000 1.000000
vt 0.625000 1.000000
vt 0.125000 0.500000
vt 0.125000 0.750000
vt 0.875000 0.750000
vt 0.875000 0.500000
vn 0.9381 -0.3129 -0.1488
vn -0.3165 -0.9486 0.0000
vn -0.9381 0.3129 0.1488
vn 0.3165 0.9486 0.0000
vn 0.1411 -0.0471 0.9889
vn -0.1411 0.0471 -0.9889
usemtl None
s off
f 89/155/67 91/156/67 92/157/67 90/158/67
f 91/156/68 95/159/68 96/160/68 92/157/68
f 95/159/69 93/161/69 94/162/69 96/160/69
f 93/161/70 89/163/70 90/164/70 94/162/70
f 91/165/71 89/166/71 93/161/71 95/159/71
f 96/160/72 94/162/72 90/167/72 92/168/72
o Cube.012_Cube.013
v 0.035289 0.027789 0.041894
v 0.029714 0.025066 0.000652
v 0.043610 0.010754 0.041894
v 0.038036 0.008031 0.000652
v 0.030676 0.025535 0.042666
v 0.025101 0.022812 0.001424
v 0.038997 0.008501 0.042666
v 0.033423 0.005777 0.001424
vt 0.375000 0.000000
vt 0.375000 0.250000
vt 0.625000 0.250000
vt 0.625000 0.000000
vt 0.375000 0.500000
vt 0.625000 0.500000
vt 0.375000 0.750000
vt 0.625000 0.750000
vt 0.375000 1.000000
vt 0.625000 1.000000
vt 0.125000 0.500000
vt 0.125000 0.750000
vt 0.875000 0.750000
vt 0.875000 0.500000
vn 0.8885 0.4341 -0.1488
vn 0.4389 -0.8985 0.0000
vn -0.8885 -0.4341 0.1488
vn -0.4389 0.8985 -0.0000
vn 0.1337 0.0653 0.9889
vn -0.1337 -0.0653 -0.9889
usemtl None
s off
f 97/169/73 99/170/73 100/171/73 98/172/73
f 99/170/74 103/173/74 104/174/74 100/171/74
f 103/173/75 101/175/75 102/176/75 104/174/75
f 101/175/76 97/177/76 98/178/76 102/176/76
f 99/179/77 97/180/77 101/175/77 103/173/77
f 104/174/78 102/176/78 98/181/78 100/182/78
o Cube.013_Cube.014
v 0.022087 0.039111 0.041894
v 0.017965 0.034474 0.000652
v 0.036256 0.026514 0.041894
v 0.032134 0.021877 0.000652
v 0.018676 0.035274 0.042666
v 0.014554 0.030637 0.001424
v 0.032845 0.022677 0.042666
v 0.028723 0.018040 0.001424
vt 0.375000 0.000000
vt 0.375000 0.250000
vt 0.625000 0.250000
vt 0.625000 0.000000
vt 0.375000 0.500000
vt 0.625000 0.500000
vt 0.375000 0.750000
vt 0.625000 0.750000
vt 0.375000 1.000000
vt 0.625000 1.000000
vt 0.125000 0.500000
vt 0.125000 0.750000
vt 0.875000 0.750000
vt 0.875000 0.500000
vn 0.6570 0.7390 -0.1488
vn 0.7473 -0.6644 0.0000
vn -0.6570 -0.7390 0.1488
vn -0.7473 0.6644 -0.0000
vn 0.0988 0.1112 0.9889
vn -0.0988 -0.1112 -0.9889
usemtl None
s off
f 105/183/79 107/184/79 108/185/79 106/186/79
f 107/184/80 111/187/80 112/188/80 108/185/80
f 111/187/81 109/189/81 110/190/81 112/188/81
f 109/189/82 105/191/82 106/192/82 110/190/82
f 107/193/83 105/194/83 109/189/83 111/187/83
f 112/188/84 110/190/84 106/195/84 108/196/84
o Cube.014_Cube.015
v 0.004803 0.044659 0.041894
v 0.002853 0.038770 0.000652
v 0.022801 0.038699 0.041894
v 0.020851 0.032810 0.000652
v 0.003189 0.039785 0.042666
v 0.001239 0.033896 0.001424
v 0.021187 0.033825 0.042666
v 0.019237 0.027936 0.001424
vt 0.375000 0.000000
vt 0.375000 0.250000
vt 0.625000 0.250000
vt 0.625000 0.000000
vt 0.375000 0.500000
vt 0.625000 0.500000
vt 0.375000 0.750000
vt 0.625000 0.750000
vt 0.375000 1.000000
vt 0.625000 1.000000
vt 0.125000 0.500000
vt 0.125000 0.750000
vt 0.875000 0.750000
vt 0.875000 0.500000
vn 0.3109 0.9387 -0.1488
vn 0.9493 -0.3144 0.0000
vn -0.3109 -0.9387 0.1488
vn -0.9493 0.3144 0.0000
vn 0.0468 0.1412 0.9889
vn -0.0468 -0.1412 -0.9889
usemtl None
s off
f 113/197/85 115/198/85 116/199/85 114/200/85
f 115/198/86 119/201/86 120/202/86 116/199/86
f 119/201/87 117/203/87 118/204/87 120/202/87
f 117/203/88 113/205/88 114/206/88 118/204/88
f 115/207/89 113/208/89 117/203/89 119/201/89
f 120/202/90 118/204/90 114/209/90 116/210/90
o Cube.015_Cube.016
v -0.028256 0.034916 0.041894
v -0.025459 0.029378 0.000652
v -0.011333 0.043463 0.041894
v -0.008536 0.037926 0.000652
v -0.025941 0.030333 0.042666
v -0.023144 0.024796 0.001424
v -0.009018 0.038881 0.042666
v -0.006221 0.033343 0.001424
vt 0.375000 0.000000
vt 0.375000 0.250000
vt 0.625000 0.250000
vt 0.625000 0.000000
vt 0.375000 0.500000
vt 0.625000 0.500000
vt 0.375000 0.750000
vt 0.625000 0.750000
vt 0.375000 1.000000
vt 0.625000 1.000000
vt 0.125000 0.500000
vt 0.125000 0.750000
vt 0.875000 0.750000
vt 0.875000 0.500000
vn -0.4458 0.8827 -0.1488
vn 0.8926 0.4508 0.0000
vn 0.4458 -0.8827 0.1488
vn -0.8926 -0.4508 0.0000
vn -0.0671 0.1328 0.9889
vn 0.0671 -0.1328 -0.9889
usemtl None
s off
f 121/211/91 123/212/91 124/213/91 122/214/91
f 123/212/92 127/215/92 128/216/92 124/213/92
f 127/215/93 125/217/93 126/218/93 128/216/93
f 125/217/94 121/219/94 122/220/94 126/218/94
f 123/221/95 121/222/95 125/217/95 127/215/95
f 128/216/96 126/218/96 122/223/96 124/224/96
o Cube.016_Cube.017
v -0.040150 0.020137 0.041894
v -0.035316 0.016248 0.000652
v -0.028265 0.034908 0.041894
v -0.023432 0.031019 0.000652
v -0.036150 0.016918 0.042666
v -0.031316 0.013029 0.001424
v -0.024265 0.031690 0.042666
v -0.019432 0.027801 0.001424
vt 0.375000 0.000000
vt 0.375000 0.250000
vt 0.625000 0.250000
vt 0.625000 0.000000
vt 0.375000 0.500000
vt 0.625000 0.500000
vt 0.375000 0.750000
vt 0.625000 0.750000
vt 0.375000 1.000000
vt 0.625000 1.000000
vt 0.125000 0.500000
vt 0.125000 0.750000
vt 0.875000 0.750000
vt 0.875000 0.500000
vn -0.7705 0.6199 -0.1488
vn 0.6269 0.7791 -0.0000
vn 0.7705 -0.6199 0.1488
vn -0.6269 -0.7791 0.0000
vn -0.1159 0.0932 0.9889
vn 0.1159 -0.0932 -0.9889
usemtl None
s off
f 129/225/97 131/226/97 132/227/97 130/228/97
f 131/226/98 135/229/98 136/230/98 132/227/98
f 135/229/99 133/231/99 134/232/99 136/230/99
f 133/231/100 129/233/100 130/234/100 134/232/100
f 131/235/101 129/236/101 133/231/101 135/229/101
f 136/230/102 134/232/102 130/237/102 132/238/102
o Cube.017_Cube.018
v -0.044670 0.004704 0.041894
v -0.038776 0.002767 0.000652
v -0.038750 0.022715 0.041894
v -0.032856 0.020778 0.000652
v -0.039792 0.003101 0.042666
v -0.033899 0.001164 0.001424
v -0.033872 0.021112 0.042666
v -0.027979 0.019174 0.001424
vt 0.375000 0.000000
vt 0.375000 0.250000
vt 0.625000 0.250000
vt 0.625000 0.000000
vt 0.375000 0.500000
vt 0.625000 0.500000
vt 0.375000 0.750000
vt 0.625000 0.750000
vt 0.375000 1.000000
vt 0.625000 1.000000
vt 0.125000 0.500000
vt 0.125000 0.750000
vt 0.875000 0.750000
vt 0.875000 0.500000
vn -0.9394 0.3088 -0.1488
vn 0.3123 0.9500 -0.0000
vn 0.9394 -0.3088 0.1488
vn -0.3123 -0.9500 0.0000
vn -0.1413 0.0464 0.9889
vn 0.1413 -0.0464 -0.9889
usemtl None
s off
f 137/239/103 139/240/103 140/241/103 138/242/103
f 139/240/104 143/243/104 144/244/104 140/241/104
f 143/243/105 141/245/105 142/246/105 144/244/105
f 141/245/106 137/247/106 138/248/106 142/246/106
f 139/249/107 137/250/107 141/245/107 143/243/107
f 144/244/108 142/246/108 138/251/108 140/252/108
o Cube.018_Cube.019
v -0.031930 0.024357 0.007318
v -0.031930 0.024357 0.000939
v -0.024476 0.024357 0.007318
v -0.024476 0.024357 0.000939
v -0.031930 -0.024357 0.007318
v -0.031930 -0.024357 0.000939
v -0.024476 -0.024357 0.007318
v -0.024476 -0.024357 0.000939
vt 0.375000 0.000000
vt 0.375000 0.250000
vt 0.625000 0.250000
vt 0.625000 0.000000
vt 0.375000 0.500000
vt 0.625000 0.500000
vt 0.375000 0.750000
vt 0.625000 0.750000
vt 0.375000 1.000000
vt 0.625000 1.000000
vt 0.125000 0.500000
vt 0.125000 0.750000
vt 0.875000 0.750000
vt 0.875000 0.500000
vn 0.0000 1.0000 0.0000
vn 1.0000 0.0000 0.0000
vn 0.0000 -1.0000 0.0000
vn -1.0000 0.0000 0.0000
vn 0.0000 0.0000 1.0000
vn 0.0000 0.0000 -1.0000
usemtl None
s off
f 145/253/109 147/254/109 148/255/109 146/256/109
f 147/254/110 151/257/110 152/258/110 148/255/110
f 151/257/111 149/259/111 150/260/111 152/258/111
f 149/259/112 145/261/112 146/262/112 150/260/112
f 147/263/113 145/264/113 149/259/113 151/257/113
f 152/258/114 150/260/114 146/265/114 148/266/114
o Cube.019_Cube.020
v 0.024841 -0.022499 0.007318
v 0.024841 -0.022499 0.000939
v 0.024999 -0.029951 0.007318
v 0.024999 -0.029951 0.000939
v -0.023862 -0.023535 0.007318
v -0.023862 -0.023535 0.000939
v -0.023703 -0.030987 0.007318
v -0.023703 -0.030987 0.000939
vt 0.375000 0.000000
vt 0.375000 0.250000
vt 0.625000 0.250000
vt 0.625000 0.000000
vt 0.375000 0.500000
vt 0.625000 0.500000
vt 0.375000 0.750000
vt 0.625000 0.750000
vt 0.375000 1.000000
vt 0.625000 1.000000
vt 0.125000 0.500000
vt 0.125000 0.750000
vt 0.875000 0.750000
vt 0.875000 0.500000
vn 0.9998 0.0213 0.0000
vn 0.0213 -0.9998 0.0000
vn -0.9998 -0.0213 0.0000
vn -0.0213 0.9998 0.0000
vn 0.0000 0.0000 1.0000
vn 0.0000 0.0000 -1.0000
usemtl None
s off
f 153/267/115 155/268/115 156/269/115 154/270/115
f 155/268/116 159/271/116 160/272/116 156/269/116
f 159/271/117 157/273/117 158/274/117 160/272/117
f 157/273/118 153/275/118 154/276/118 158/274/118
f 155/277/119 153/278/119 157/273/119 159/271/119
f 160/272/120 158/274/120 154/279/120 156/280/120
o Cube.020_Cube.021
v -0.023595 0.023802 0.007318
v -0.023595 0.023802 0.000939
v -0.023353 0.031252 0.007318
v -0.023353 0.031252 0.000939
v 0.025092 0.022218 0.007318
v 0.025092 0.022218 0.000939
v 0.025335 0.029668 0.007318
v 0.025335 0.029668 0.000939
vt 0.375000 0.000000
vt 0.375000 0.250000
vt 0.625000 0.250000
vt 0.625000 0.000000
vt 0.375000 0.500000
vt 0.625000 0.500000
vt 0.375000 0.750000
vt 0.625000 0.750000
vt 0.375000 1.000000
vt 0.625000 1.000000
vt 0.125000 0.500000
vt 0.125000 0.750000
vt 0.875000 0.750000
vt 0.875000 0.500000
vn -0.9995 0.0325 0.0000
vn 0.0325 0.9995 0.0000
vn 0.9995 -0.0325 0.0000
vn -0.0325 -0.9995 0.0000
vn -0.0000 0.0000 1.0000
vn 0.0000 0.0000 -1.0000
usemtl None
s off
f 161/281/121 163/282/121 164/283/121 162/284/121
f 163/282/122 167/285/122 168/286/122 164/283/122
f 167/285/123 165/287/123 166/288/123 168/286/123
f 165/287/124 161/289/124 162/290/124 166/288/124
f 163/291/125 161/292/125 165/287/125 167/285/125
f 168/286/126 166/288/126 162/293/126 164/294/126
o Cube.021_Cube.022
v -0.035442 0.012092 0.007318
v -0.035442 0.012092 0.000939
v -0.027988 0.012092 0.007318
v -0.027988 0.012092 0.000939
v -0.035442 -0.012092 0.007318
v -0.035442 -0.012092 0.000939
v -0.027988 -0.012092 0.007318
v -0.027988 -0.012092 0.000939
vt 0.375000 0.000000
vt 0.375000 0.250000
vt 0.625000 0.250000
vt 0.625000 0.000000
vt 0.375000 0.500000
vt 0.625000 0.500000
vt 0.375000 0.750000
vt 0.625000 0.750000
vt 0.375000 1.000000
vt 0.625000 1.000000
vt 0.125000 0.500000
vt 0.125000 0.750000
vt 0.875000 0.750000
vt 0.875000 0.500000
vn 0.0000 1.0000 0.0000
vn 1.0000 0.0000 0.0000
vn 0.0000 -1.0000 0.0000
vn -1.0000 0.0000 0.0000
vn 0.0000 0.0000 1.0000
vn 0.0000 0.0000 -1.0000
usemtl None
s off
f 169/295/127 171/296/127 172/297/127 170/298/127
f 171/296/128 175/299/128 176/300/128 172/297/128
f 175/299/129 173/301/129 174/302/129 176/300/129
f 173/301/130 169/303/130 170/304/130 174/302/130
f 171/305/131 169/306/131 173/301/131 175/299/131
f 176/300/132 174/302/132 170/307/132 172/308/132
o Cube.022_Cube.023
v 0.029179 0.012092 0.007318
v 0.029179 0.012092 0.000939
v 0.036633 0.012092 0.007318
v 0.036633 0.012092 0.000939
v 0.029179 -0.012092 0.007318
v 0.029179 -0.012092 0.000939
v 0.036633 -0.012092 0.007318
v 0.036633 -0.012092 0.000939
vt 0.375000 0.000000
vt 0.375000 0.250000
vt 0.625000 0.250000
vt 0.625000 0.000000
vt 0.375000 0.500000
vt 0.625000 0.500000
vt 0.375000 0.750000
vt 0.625000 0.750000
vt 0.375000 1.000000
vt 0.625000 1.000000
vt 0.125000 0.500000
vt 0.125000 0.750000
vt 0.875000 0.750000
vt 0.875000 0.500000
vn 0.0000 1.0000 0.0000
vn 1.0000 0.0000 0.0000
vn 0.0000 -1.0000 0.0000
vn -1.0000 0.0000 0.0000
vn 0.0000 0.0000 1.0000
vn 0.0000 0.0000 -1.0000
usemtl None
s off
f 177/309/133 179/310/133 180/311/133 178/312/133
f 179/310/134 183/313/134 184/314/134 180/311/134
f 183/313/135 181/315/135 182/316/135 184/314/135
f 181/315/136 177/317/136 178/318/136 182/316/136
f 179/319/137 177/320/137 181/315/137 183/313/137
f 184/314/138 182/316/138 178/321/138 180/322/138
o Cube.023_Cube.024
v 0.011758 -0.029315 0.007318
v 0.011758 -0.029315 0.000939
v 0.011673 -0.036768 0.007318
v 0.011673 -0.036768 0.000939
v -0.012424 -0.029039 0.007318
v -0.012424 -0.029039 0.000939
v -0.012509 -0.036492 0.007318
v -0.012509 -0.036492 0.000939
vt 0.375000 0.000000
vt 0.375000 0.250000
vt 0.625000 0.250000
vt 0.625000 0.000000
vt 0.375000 0.500000
vt 0.625000 0.500000
vt 0.375000 0.750000
vt 0.625000 0.750000
vt 0.375000 1.000000
vt 0.625000 1.000000
vt 0.125000 0.500000
vt 0.125000 0.750000
vt 0.875000 0.750000
vt 0.875000 0.500000
vn 0.9999 -0.0114 0.0000
vn -0.0114 -0.9999 0.0000
vn -0.9999 0.0114 0.0000
vn 0.0114 0.9999 0.0000
vn 0.0000 0.0000 1.0000
vn 0.0000 0.0000 -1.0000
usemtl None
s off
f 185/323/139 187/324/139 188/325/139 186/326/139
f 187/324/140 191/327/140 192/328/140 188/325/140
f 191/327/141 189/329/141 190/330/141 192/328/141
f 189/329/142 185/331/142 186/332/142 190/330/142
f 187/333/143 185/334/143 189/329/143 191/327/143
f 192/328/144 190/330/144 186/335/144 188/336/144
o Cube.024_Cube.025
v -0.011334 0.029482 0.007318
v -0.011334 0.029482 0.000939
v -0.011141 0.036933 0.007318
v -0.011141 0.036933 0.000939
v 0.012841 0.028857 0.007318
v 0.012841 0.028857 0.000939
v 0.013034 0.036308 0.007318
v 0.013034 0.036308 0.000939
vt 0.375000 0.000000
vt 0.375000 0.250000
vt 0.625000 0.250000
vt 0.625000 0.000000
vt 0.375000 0.500000
vt 0.625000 0.500000
vt 0.375000 0.750000
vt 0.625000 0.750000
vt 0.375000 1.000000
vt 0.625000 1.000000
vt 0.125000 0.500000
vt 0.125000 0.750000
vt 0.875000 0.750000
vt 0.875000 0.500000
vn -0.9997 0.0258 0.0000
vn 0.0258 0.9997 0.0000
vn 0.9997 -0.0258 0.0000
vn -0.0258 -0.9997 0.0000
vn 0.0000 0.0000 1.0000
vn 0.0000 0.0000 -1.0000
usemtl None
s off
f 193/337/145 195/338/145 196/339/145 194/340/145
f 195/338/146 199/341/146 200/342/146 196/339/146
f 199/341/147 197/343/147 198/344/147 200/342/147
f 197/343/148 193/345/148 194/346/148 198/344/148
f 195/347/149 193/348/149 197/343/149 199/341/149
f 200/342/150 198/344/150 194/349/150 196/350/150
