# Blender v3.2.2 OBJ File: 'door_col.blend'
# www.blender.org
mtllib door_col.mtl
o Cube
v 0.969763 0.045267 -0.743295
v 0.969763 2.146644 -0.743295
v 1.156586 0.045267 -0.736989
v 1.156586 2.146644 -0.736989
v 0.915521 0.045267 0.863801
v 0.915521 2.146644 0.863801
v 1.102344 0.045267 0.870106
v 1.102344 2.146644 0.870106
vt 0.375000 0.000000
vt 0.625000 0.000000
vt 0.625000 0.250000
vt 0.375000 0.250000
vt 0.625000 0.500000
vt 0.375000 0.500000
vt 0.625000 0.750000
vt 0.375000 0.750000
vt 0.625000 1.000000
vt 0.375000 1.000000
vt 0.125000 0.500000
vt 0.125000 0.750000
vt 0.875000 0.500000
vt 0.875000 0.750000
vn 0.0337 0.0000 -0.9994
vn 0.9994 0.0000 0.0337
vn -0.0337 0.0000 0.9994
vn -0.9994 0.0000 -0.0337
vn 0.0000 -1.0000 0.0000
vn 0.0000 1.0000 -0.0000
usemtl None
s off
f 1/1/1 2/2/1 4/3/1 3/4/1
f 3/4/2 4/3/2 8/5/2 7/6/2
f 7/6/3 8/5/3 6/7/3 5/8/3
f 5/8/4 6/7/4 2/9/4 1/10/4
f 3/11/5 7/6/5 5/8/5 1/12/5
f 8/5/6 4/13/6 2/14/6 6/7/6
o Cube.001_Cube.012
v 1.093726 -0.099207 -0.972294
v 1.093726 2.291118 -0.972294
v 1.260394 -0.099207 -0.968044
v 1.260394 2.291118 -0.968044
v 1.063200 -0.099207 0.224963
v 1.063200 2.291118 0.224963
v 1.229867 -0.099207 0.229213
v 1.229867 2.291118 0.229213
vt 0.375000 0.000000
vt 0.625000 0.000000
vt 0.625000 0.250000
vt 0.375000 0.250000
vt 0.625000 0.500000
vt 0.375000 0.500000
vt 0.625000 0.750000
vt 0.375000 0.750000
vt 0.625000 1.000000
vt 0.375000 1.000000
vt 0.125000 0.500000
vt 0.125000 0.750000
vt 0.875000 0.500000
vt 0.875000 0.750000
vn 0.0255 0.0000 -0.9997
vn 0.9997 0.0000 0.0255
vn -0.0255 0.0000 0.9997
vn -0.9997 0.0000 -0.0255
vn 0.0000 -1.0000 0.0000
vn 0.0000 1.0000 0.0000
usemtl None
s off
f 9/15/7 10/16/7 12/17/7 11/18/7
f 11/18/8 12/17/8 16/19/8 15/20/8
f 15/20/9 16/19/9 14/21/9 13/22/9
f 13/22/10 14/21/10 10/23/10 9/24/10
f 11/25/11 15/20/11 13/22/11 9/26/11
f 16/19/12 12/27/12 10/28/12 14/21/12
o Cube.002_Cube.013
v 1.260576 -0.099207 0.697960
v 1.260576 2.291118 0.697960
v 1.340140 -0.099207 0.704867
v 1.340140 2.291118 0.704867
v 1.233602 -0.099207 1.008702
v 1.233602 2.291118 1.008702
v 1.313165 -0.099207 1.015609
v 1.313165 2.291118 1.015609
vt 0.375000 0.000000
vt 0.625000 0.000000
vt 0.625000 0.250000
vt 0.375000 0.250000
vt 0.625000 0.500000
vt 0.375000 0.500000
vt 0.625000 0.750000
vt 0.375000 0.750000
vt 0.625000 1.000000
vt 0.375000 1.000000
vt 0.125000 0.500000
vt 0.125000 0.750000
vt 0.875000 0.500000
vt 0.875000 0.750000
vn 0.0865 0.0000 -0.9963
vn 0.9963 0.0000 0.0865
vn -0.0865 0.0000 0.9963
vn -0.9963 0.0000 -0.0865
vn 0.0000 -1.0000 0.0000
vn 0.0000 1.0000 0.0000
usemtl None
s off
f 17/29/13 18/30/13 20/31/13 19/32/13
f 19/32/14 20/31/14 24/33/14 23/34/14
f 23/34/15 24/33/15 22/35/15 21/36/15
f 21/36/16 22/35/16 18/37/16 17/38/16
f 19/39/17 23/34/17 21/36/17 17/40/17
f 24/33/18 20/41/18 18/42/18 22/35/18
o Cube.003_Cube.019
v 1.314070 0.198072 0.913521
v 1.314070 1.993839 0.913521
v 1.309359 0.198072 1.012055
v 1.309359 1.993839 1.012055
v 1.031772 0.198072 0.900024
v 1.031772 1.993839 0.900024
v 1.027061 0.198072 0.998557
v 1.027061 1.993839 0.998557
vt 0.375000 0.000000
vt 0.625000 0.000000
vt 0.625000 0.250000
vt 0.375000 0.250000
vt 0.625000 0.500000
vt 0.375000 0.500000
vt 0.625000 0.750000
vt 0.375000 0.750000
vt 0.625000 1.000000
vt 0.375000 1.000000
vt 0.125000 0.500000
vt 0.125000 0.750000
vt 0.875000 0.500000
vt 0.875000 0.750000
vn 0.9989 0.0000 0.0478
vn -0.0478 0.0000 0.9989
vn -0.9989 0.0000 -0.0478
vn 0.0478 0.0000 -0.9989
vn 0.0000 -1.0000 0.0000
vn 0.0000 1.0000 0.0000
usemtl None
s off
f 25/43/19 26/44/19 28/45/19 27/46/19
f 27/46/20 28/45/20 32/47/20 31/48/20
f 31/48/21 32/47/21 30/49/21 29/50/21
f 29/50/22 30/49/22 26/51/22 25/52/22
f 27/53/23 31/48/23 29/50/23 25/54/23
f 32/47/24 28/55/24 26/56/24 30/49/24
o Cube.004_Cube.001
v 1.067675 -0.095337 -0.118021
v 1.067675 2.287248 -0.118021
v 1.223914 -0.095337 -0.108066
v 1.223914 2.287248 -0.108066
v 0.996166 -0.095337 1.004327
v 0.996166 2.287248 1.004327
v 1.152406 -0.095337 1.014282
v 1.152406 2.287248 1.014282
vt 0.375000 0.000000
vt 0.625000 0.000000
vt 0.625000 0.250000
vt 0.375000 0.250000
vt 0.625000 0.500000
vt 0.375000 0.500000
vt 0.625000 0.750000
vt 0.375000 0.750000
vt 0.625000 1.000000
vt 0.375000 1.000000
vt 0.125000 0.500000
vt 0.125000 0.750000
vt 0.875000 0.500000
vt 0.875000 0.750000
vn 0.0636 0.0000 -0.9980
vn 0.9980 0.0000 0.0636
vn -0.0636 0.0000 0.9980
vn -0.9980 0.0000 -0.0636
vn 0.0000 -1.0000 0.0000
vn 0.0000 1.0000 0.0000
usemtl None
s off
f 33/57/25 34/58/25 36/59/25 35/60/25
f 35/60/26 36/59/26 40/61/26 39/62/26
f 39/62/27 40/61/27 38/63/27 37/64/27
f 37/64/28 38/63/28 34/65/28 33/66/28
f 35/67/29 39/62/29 37/64/29 33/68/29
f 40/61/30 36/69/30 34/70/30 38/63/30
o Cube.005_Cube.002
v 0.973945 -0.018720 -0.852367
v 0.973945 1.981280 -0.852367
v 1.141990 -0.018720 -0.995778
v 1.141990 1.981280 -0.995778
v 1.105368 -0.018720 -0.698369
v 1.105368 1.981280 -0.698369
v 1.273413 -0.018720 -0.841779
v 1.273413 1.981280 -0.841779
vt 0.375000 0.000000
vt 0.625000 0.000000
vt 0.625000 0.250000
vt 0.375000 0.250000
vt 0.625000 0.500000
vt 0.375000 0.500000
vt 0.625000 0.750000
vt 0.375000 0.750000
vt 0.625000 1.000000
vt 0.375000 1.000000
vt 0.125000 0.500000
vt 0.125000 0.750000
vt 0.875000 0.500000
vt 0.875000 0.750000
vn -0.6492 0.0000 -0.7607
vn 0.7607 0.0000 -0.6492
vn 0.6492 0.0000 0.7607
vn -0.7607 0.0000 0.6491
vn 0.0000 -1.0000 -0.0000
vn 0.0000 1.0000 0.0000
usemtl None
s off
f 41/71/31 42/72/31 44/73/31 43/74/31
f 43/74/32 44/73/32 48/75/32 47/76/32
f 47/76/33 48/75/33 46/77/33 45/78/33
f 45/78/34 46/77/34 42/79/34 41/80/34
f 43/81/35 47/76/35 45/78/35 41/82/35
f 48/75/36 44/83/36 42/84/36 46/77/36
