# Blender 3.4.1
# www.blender.org
mtllib wall_decoration.mtl
g P_Model_28_Mesh.027
v 1.126561 0.000000 -1.358462
v -1.029799 0.000000 -1.358462
v 1.126561 0.000000 1.164748
v -1.029799 0.000000 1.164748
v 1.126561 0.040000 -1.358462
v -1.029799 0.040000 -1.358462
v 1.126561 0.040000 1.164748
v -1.029799 0.040000 1.164748
vn -0.0000 -1.0000 -0.0000
vn -0.0000 1.0000 -0.0000
vn -0.0000 -0.0000 -1.0000
vn -1.0000 -0.0000 -0.0000
vn -0.0000 -0.0000 1.0000
vn 1.0000 -0.0000 -0.0000
vt 0.000000 0.000000
vt 1.000000 0.000000
vt 1.000000 0.000000
vt 0.000000 0.000000
vt 1.000000 1.000000
vt 1.000000 0.000000
vt 0.000000 0.000000
vt 0.000000 1.000000
vt 1.000000 0.000000
vt 0.000000 0.000000
vt 0.000000 0.000000
vt 0.000000 1.000000
vt 1.000000 1.000000
vt 1.000000 0.000000
vt 1.000000 1.000000
vt 0.000000 1.000000
vt 1.000000 1.000000
vt 0.000000 1.000000
vt 1.000000 1.000000
vt 0.000000 1.000000
s 1
g off
g P_Model_28_ZMat_14
usemtl ZMat_14
f 1/2/1 3/5/1 4/8/1 2/4/1
f 5/11/2 6/14/2 8/19/2 7/18/2
f 1/1/3 2/3/3 6/15/3 5/12/3
f 2/4/4 4/9/4 8/19/4 6/16/4
f 4/10/5 3/6/5 7/17/5 8/20/5
f 3/7/6 1/2/6 5/13/6 7/18/6
