# Blender 3.3.0
# www.blender.org
mtllib wooden_tray.mtl
o base_caixote_Cube.002
v -0.249730 -0.143702 0.157661
v -0.249716 -0.167150 0.157804
v -0.275768 -0.143717 0.157662
v -0.275755 -0.167165 0.157804
v 0.305527 -0.143373 0.157660
v 0.280660 -0.143388 0.157660
v 0.305541 -0.166822 0.157802
v 0.280673 -0.166837 0.157802
v -0.275754 -0.168661 0.124297
v -0.275754 -0.169188 0.037542
v 0.305542 -0.168845 0.037540
v 0.305542 -0.168318 0.124295
v -0.275751 -0.175714 0.037582
v -0.275751 -0.175186 0.124336
v 0.305545 -0.174843 0.124334
v 0.305545 -0.175370 0.037580
v -0.275846 -0.167454 0.110242
v -0.275846 -0.168015 0.017949
v -0.282371 -0.167458 0.110242
v -0.282371 -0.168019 0.017949
v 0.305750 -0.167117 0.109259
v 0.305750 -0.167669 0.018418
v 0.312276 -0.167665 0.018418
v 0.312276 -0.167113 0.109259
v 0.305541 -0.166815 0.158977
v 0.280673 -0.166829 0.158977
v 0.305541 -0.166791 0.162892
v 0.280673 -0.166806 0.162892
v -0.249716 -0.167143 0.158979
v -0.275755 -0.167158 0.158979
v -0.249716 -0.167119 0.162894
v -0.275755 -0.167134 0.162894
v -0.249888 0.123384 0.156038
v -0.249901 0.146832 0.155895
v -0.275927 0.123368 0.156038
v -0.275940 0.146817 0.155895
v 0.305369 0.123711 0.156036
v 0.280502 0.123697 0.156036
v 0.305355 0.147161 0.155893
v 0.280487 0.147146 0.155893
v -0.275941 0.147905 0.122372
v -0.275941 0.147378 0.035618
v 0.305354 0.147721 0.035616
v 0.305354 0.148249 0.122370
v -0.275946 0.153903 0.035578
v -0.275946 0.154430 0.122332
v 0.305351 0.154774 0.122330
v 0.305351 0.154247 0.035576
v -0.276031 0.145966 0.016040
v -0.276031 0.146527 0.108333
v -0.282557 0.146524 0.108333
v -0.282557 0.145963 0.016040
v 0.305565 0.146865 0.107350
v 0.305565 0.146313 0.016509
v 0.312090 0.146317 0.016509
v 0.312090 0.146870 0.107350
v 0.305355 0.147168 0.157068
v 0.280487 0.147153 0.157068
v 0.305355 0.147191 0.160983
v 0.280487 0.147177 0.160983
v -0.249901 0.146839 0.157070
v -0.275940 0.146824 0.157070
v -0.249901 0.146863 0.160985
v -0.275940 0.146848 0.160985
v -0.249716 -0.168106 0.000553
v -0.275755 -0.168121 0.000553
v -0.249716 -0.168082 0.004468
v -0.275755 -0.168097 0.004468
v -0.249901 0.145876 -0.001356
v -0.275940 0.145861 -0.001356
v -0.249901 0.145900 0.002559
v -0.275940 0.145884 0.002559
v 0.305541 -0.167778 0.000551
v 0.280673 -0.167793 0.000551
v 0.305541 -0.167754 0.004466
v 0.280673 -0.167769 0.004466
v 0.305355 0.146205 -0.001358
v 0.280487 0.146190 -0.001358
v 0.305355 0.146228 0.002557
v 0.280487 0.146214 0.002557
v 0.305541 -0.167671 0.018182
v 0.280673 -0.167685 0.018182
v 0.280660 -0.144237 0.018039
v 0.305527 -0.144222 0.018039
v 0.305355 0.146312 0.016273
v 0.280487 0.146297 0.016273
v 0.280502 0.122848 0.016416
v 0.305369 0.122863 0.016415
v -0.249888 0.122535 0.016417
v -0.249901 0.145983 0.016275
v -0.275940 0.145968 0.016275
v -0.275927 0.122520 0.016417
v -0.249730 -0.144550 0.018041
v -0.249716 -0.167999 0.018184
v -0.275755 -0.168014 0.018184
v -0.275768 -0.144566 0.018041
v -0.276489 0.146206 0.002606
v -0.276489 0.146287 0.015923
v 0.305671 0.146550 0.002604
v 0.305671 0.146631 0.015921
v -0.276443 0.066844 0.003089
v -0.276443 0.066925 0.016405
v 0.305719 0.067187 0.003087
v 0.305719 0.067268 0.016403
v -0.276426 0.039641 0.003254
v -0.276426 0.039722 0.016571
v 0.305734 0.039984 0.003252
v 0.305734 0.040065 0.016569
v -0.276367 -0.061900 0.003871
v -0.276367 -0.061819 0.017188
v 0.305795 -0.061557 0.003869
v 0.305795 -0.061476 0.017186
v -0.276351 -0.089104 0.004037
v -0.276351 -0.089023 0.017353
v 0.305811 -0.088760 0.004035
v 0.305811 -0.088679 0.017351
v -0.276303 -0.168466 0.004519
v -0.276303 -0.168385 0.017836
v 0.305858 -0.168121 0.004517
v 0.305858 -0.168040 0.017834
vn 0.0006 -1.0000 0.0061
vn 1.0000 0.0006 -0.0000
vn -0.0000 0.0061 1.0000
vn -0.0006 1.0000 -0.0061
vn -1.0000 -0.0006 -0.0000
vn -0.0000 -0.0061 -1.0000
vn -0.0000 0.0063 1.0000
vn -1.0000 -0.0005 -0.0000
vn 1.0000 0.0005 -0.0000
vn 0.0006 -1.0000 0.0059
vn -1.0000 -0.0008 -0.0000
vn -0.0005 1.0000 -0.0061
vn -0.0008 1.0000 -0.0061
vn -0.0006 1.0000 -0.0059
vn -0.0000 0.0060 1.0000
vt 0.239652 0.764210
vt 0.269447 0.764210
vt 0.239652 0.731124
vt 0.206566 0.764210
vt 0.269447 0.731124
vt 0.302533 0.764210
vt 0.176771 0.764210
vt 0.504918 0.731772
vt 0.536515 0.763370
vt 0.504918 0.763369
vt 0.475122 0.731772
vt 0.443525 0.763370
vt 0.566310 0.763369
vt 0.475122 0.763370
vt 0.440717 0.116477
vt 0.528751 0.116391
vt 0.369371 0.116477
vt 0.440150 0.005543
vt 0.441285 0.705459
vt 0.528751 0.594439
vt 0.369370 0.594524
vt 0.440717 0.594524
vt 0.520408 0.116434
vt 0.448493 0.005500
vt 0.449061 0.116434
vt 0.449061 0.594481
vt 0.520408 0.594481
vt 0.449629 0.705416
vt 0.722842 0.987892
vt 0.728680 0.993731
vt 0.811272 0.993731
vt 0.817110 0.987892
vt 0.640250 0.987892
vt 0.728680 0.987892
vt 0.811272 0.987892
vt 0.904241 0.993731
vt 0.910080 0.987892
vt 0.817111 0.987892
vt 0.822950 0.993731
vt 0.991372 0.987892
vt 0.822950 0.987892
vt 0.904241 0.987892
vt 0.969638 0.389479
vt 0.969509 0.359281
vt 0.991211 0.389479
vt 0.938557 0.389519
vt 0.964884 0.389499
vt 0.964755 0.359302
vt 0.943311 0.389499
vt 0.968041 0.048252
vt 0.967905 0.016602
vt 0.935912 0.048293
vt 0.990651 0.048252
vt 0.963282 0.048273
vt 0.940671 0.048273
vt 0.963146 0.016622
vt 0.105571 0.764210
vt 0.075775 0.764210
vt 0.105570 0.731124
vt 0.138656 0.764210
vt 0.075775 0.731124
vt 0.042689 0.764210
vt 0.168451 0.764210
vt 0.372400 0.972380
vt 0.403997 0.940782
vt 0.372400 0.940782
vt 0.342605 0.972380
vt 0.311007 0.940782
vt 0.433792 0.940782
vt 0.342605 0.940782
vt 0.276454 0.598384
vt 0.364488 0.598394
vt 0.275762 0.709315
vt 0.205107 0.598384
vt 0.277145 0.009406
vt 0.364488 0.120345
vt 0.205107 0.120336
vt 0.276454 0.120336
vt 0.356144 0.598436
vt 0.284106 0.709367
vt 0.284797 0.598436
vt 0.284797 0.120388
vt 0.356144 0.120388
vt 0.285488 0.009458
vt 0.640249 0.706917
vt 0.811272 0.701078
vt 0.817111 0.706917
vt 0.722841 0.706917
vt 0.728680 0.701078
vt 0.728680 0.706917
vt 0.811272 0.706917
vt 0.904241 0.701078
vt 0.910080 0.706917
vt 0.817111 0.706917
vt 0.991372 0.706917
vt 0.822950 0.701078
vt 0.822950 0.706917
vt 0.904241 0.706917
vt 0.969638 0.661868
vt 0.938557 0.661908
vt 0.969767 0.692065
vt 0.991211 0.661868
vt 0.964884 0.661888
vt 0.943311 0.661888
vt 0.965013 0.692085
vt 0.968040 0.320904
vt 0.935912 0.320944
vt 0.968176 0.352554
vt 0.990651 0.320904
vt 0.963282 0.320924
vt 0.940671 0.320924
vt 0.963417 0.352575
vt 0.868477 0.322897
vt 0.900741 0.354507
vt 0.923217 0.322856
vt 0.900606 0.322856
vt 0.873236 0.322877
vt 0.895982 0.354527
vt 0.895847 0.322877
vt 0.923217 0.050205
vt 0.868477 0.050246
vt 0.900470 0.018555
vt 0.900605 0.050205
vt 0.873236 0.050226
vt 0.895711 0.018575
vt 0.895847 0.050226
vt 0.894781 0.663821
vt 0.894630 0.694017
vt 0.925862 0.663824
vt 0.873208 0.663821
vt 0.899535 0.663844
vt 0.921108 0.663844
vt 0.899384 0.694041
vt 0.894781 0.391431
vt 0.925862 0.391434
vt 0.894931 0.361234
vt 0.873208 0.391431
vt 0.899535 0.391455
vt 0.921108 0.391455
vt 0.899685 0.361258
vt 0.566310 0.940779
vt 0.443526 0.940779
vt 0.475123 0.972377
vt 0.475123 0.940779
vt 0.504918 0.940779
vt 0.536515 0.940779
vt 0.504918 0.972377
vt 0.433792 0.763372
vt 0.342605 0.731775
vt 0.311007 0.763372
vt 0.342605 0.763372
vt 0.372400 0.763372
vt 0.403997 0.763372
vt 0.372400 0.731775
vt 0.105570 0.941620
vt 0.075775 0.941619
vt 0.042689 0.941619
vt 0.168451 0.941620
vt 0.075775 0.974706
vt 0.138656 0.941620
vt 0.105570 0.974706
vt 0.239652 0.941620
vt 0.269447 0.941620
vt 0.302533 0.941620
vt 0.269447 0.974706
vt 0.176771 0.941620
vt 0.206566 0.941620
vt 0.239652 0.974706
vt 0.762900 0.102750
vt 0.774138 0.102750
vt 0.762900 0.594045
vt 0.774138 0.594045
vt 0.762900 0.035773
vt 0.852353 0.102750
vt 0.695923 0.102750
vt 0.774138 0.035773
vt 0.841114 0.102750
vt 0.852353 0.594045
vt 0.762900 0.661025
vt 0.695923 0.594045
vt 0.774138 0.661025
vt 0.841115 0.594045
vt 0.115506 0.598119
vt 0.104268 0.598119
vt 0.115506 0.106824
vt 0.104268 0.106824
vt 0.115506 0.683814
vt 0.007335 0.598120
vt 0.201201 0.598119
vt 0.104268 0.683814
vt 0.018574 0.598120
vt 0.007335 0.106824
vt 0.115506 0.021125
vt 0.201201 0.106824
vt 0.104267 0.021125
vt 0.018573 0.106824
vt 0.690064 0.594045
vt 0.600611 0.661025
vt 0.533634 0.594045
vt 0.611849 0.661025
vt 0.678826 0.594045
vt 0.600611 0.035773
vt 0.533634 0.102750
vt 0.690064 0.102750
vt 0.611849 0.035773
vt 0.678825 0.102750
vt 0.600611 0.594045
vt 0.611849 0.594045
vt 0.600611 0.102750
vt 0.611849 0.102750
s 0
usemtl crate_mat_0001.004
f 81/142/1 8/14/1 82/144/1
f 93/162/2 2/2/2 94/163/2
f 2/2/3 3/3/3 4/5/3
f 5/8/3 8/14/3 7/11/3
f 83/145/4 5/9/4 84/146/4
f 82/144/5 6/10/5 83/145/5
f 94/163/1 4/6/1 95/164/1
f 96/167/4 1/1/4 93/162/4
f 95/166/5 3/4/5 96/167/5
f 84/146/2 7/13/2 81/141/2
f 11/20/6 13/23/6 10/16/6
f 15/26/1 13/23/1 16/27/1
f 9/15/7 15/26/7 12/22/7
f 10/18/8 14/25/8 9/15/8
f 12/22/9 16/28/9 11/19/9
f 52/91/6 18/32/6 20/35/6
f 50/88/2 18/33/2 49/85/2
f 20/35/5 51/90/5 52/91/5
f 51/90/3 17/29/3 50/88/3
f 17/30/1 20/35/1 18/31/1
f 55/97/2 24/42/2 23/41/2
f 56/98/3 21/37/3 24/42/3
f 54/94/6 23/41/6 22/38/6
f 22/39/1 24/42/1 21/36/1
f 53/93/5 22/40/5 21/37/5
f 25/43/6 58/102/6 57/99/6
f 25/43/10 28/48/10 26/44/10
f 64/111/3 31/54/3 63/110/3
f 31/54/2 61/106/2 63/110/2
f 30/52/5 64/111/5 62/107/5
f 29/50/1 32/56/1 30/51/1
f 40/70/4 85/150/4 86/151/4
f 34/58/2 89/155/2 90/156/2
f 34/58/3 35/59/3 33/57/3
f 40/70/3 37/64/3 39/67/3
f 37/65/1 87/152/1 88/153/1
f 38/66/5 86/151/5 87/152/5
f 36/62/4 90/156/4 91/157/4
f 33/57/1 92/160/1 89/155/1
f 35/60/5 91/158/5 92/160/5
f 39/69/2 88/153/2 85/148/2
f 48/83/6 42/72/6 45/79/6
f 45/79/4 47/82/4 48/83/4
f 47/82/3 41/71/3 44/78/3
f 46/81/11 42/73/11 41/71/11
f 48/84/9 44/78/9 43/75/9
f 52/91/12 50/89/12 49/86/12
f 56/98/13 54/96/13 53/92/13
f 28/49/3 59/103/3 60/104/3
f 26/46/5 60/104/5 58/100/5
f 27/47/2 57/99/2 59/103/2
f 60/105/4 57/99/4 58/101/4
f 29/50/6 62/109/6 61/106/6
f 64/112/4 61/106/4 62/108/4
f 72/126/3 67/117/3 71/124/3
f 67/117/2 69/121/2 71/124/2
f 66/116/5 72/126/5 70/123/5
f 65/114/1 68/119/1 66/116/1
f 65/115/6 70/123/6 69/120/6
f 72/126/14 69/122/14 70/123/14
f 80/139/3 75/131/3 79/138/3
f 74/129/5 80/139/5 78/135/5
f 79/138/2 73/127/2 77/134/2
f 73/127/1 76/133/1 74/128/1
f 73/127/6 78/137/6 77/134/6
f 80/140/4 77/134/4 78/136/4
f 96/168/6 94/163/6 95/165/6
f 84/147/6 82/144/6 83/145/6
f 42/74/1 44/78/1 41/71/1
f 9/15/4 11/21/4 10/17/4
f 88/154/6 86/151/6 85/149/6
f 92/161/6 90/156/6 89/155/6
f 98/170/4 99/171/4 97/169/4
f 100/172/2 103/179/2 99/171/2
f 104/182/1 101/174/1 103/178/1
f 102/176/5 97/169/5 101/173/5
f 103/180/6 97/169/6 99/171/6
f 100/172/3 102/177/3 104/182/3
f 106/184/4 107/185/4 105/183/4
f 108/186/2 111/193/2 107/185/2
f 112/196/1 109/188/1 111/192/1
f 110/190/5 105/183/5 109/187/5
f 111/194/6 105/183/6 107/185/6
f 108/186/3 110/191/3 112/196/3
f 114/201/4 115/204/4 113/197/4
f 116/205/2 119/209/2 115/202/2
f 120/210/1 117/207/1 119/209/1
f 118/208/5 113/198/5 117/207/5
f 119/209/6 113/199/6 115/203/6
f 116/206/3 118/208/3 120/210/3
f 81/142/1 7/12/1 8/14/1
f 93/162/2 1/1/2 2/2/2
f 2/2/3 1/1/3 3/3/3
f 5/8/3 6/10/3 8/14/3
f 83/145/4 6/10/4 5/9/4
f 82/144/5 8/14/5 6/10/5
f 94/163/1 2/2/1 4/6/1
f 96/167/4 3/4/4 1/1/4
f 95/166/5 4/7/5 3/4/5
f 84/146/2 5/9/2 7/13/2
f 11/20/6 16/27/6 13/23/6
f 15/26/1 14/25/1 13/23/1
f 9/15/15 14/25/15 15/26/15
f 10/18/8 13/24/8 14/25/8
f 12/22/9 15/26/9 16/28/9
f 52/91/6 49/87/6 18/32/6
f 50/88/2 17/29/2 18/33/2
f 20/35/5 19/34/5 51/90/5
f 51/90/3 19/34/3 17/29/3
f 17/30/1 19/34/1 20/35/1
f 55/97/2 56/98/2 24/42/2
f 56/98/3 53/93/3 21/37/3
f 54/94/6 55/97/6 23/41/6
f 22/39/1 23/41/1 24/42/1
f 53/93/5 54/95/5 22/40/5
f 25/43/6 26/45/6 58/102/6
f 25/43/1 27/47/1 28/48/1
f 64/111/3 32/55/3 31/54/3
f 31/54/2 29/50/2 61/106/2
f 30/52/5 32/55/5 64/111/5
f 29/50/1 31/54/1 32/56/1
f 40/70/4 39/68/4 85/150/4
f 34/58/2 33/57/2 89/155/2
f 34/58/3 36/61/3 35/59/3
f 40/70/3 38/66/3 37/64/3
f 37/65/1 38/66/1 87/152/1
f 38/66/5 40/70/5 86/151/5
f 36/62/4 34/58/4 90/156/4
f 33/57/1 35/60/1 92/160/1
f 35/60/5 36/63/5 91/158/5
f 39/69/2 37/65/2 88/153/2
f 48/83/6 43/76/6 42/72/6
f 45/79/4 46/81/4 47/82/4
f 47/82/3 46/81/3 41/71/3
f 46/81/11 45/80/11 42/73/11
f 48/84/9 47/82/9 44/78/9
f 52/91/12 51/90/12 50/89/12
f 56/98/4 55/97/4 54/96/4
f 28/49/3 27/47/3 59/103/3
f 26/46/5 28/49/5 60/104/5
f 27/47/2 25/43/2 57/99/2
f 60/105/14 59/103/14 57/99/14
f 29/50/6 30/53/6 62/109/6
f 64/112/4 63/110/4 61/106/4
f 72/126/3 68/119/3 67/117/3
f 67/117/2 65/113/2 69/121/2
f 66/116/5 68/119/5 72/126/5
f 65/114/1 67/118/1 68/119/1
f 65/115/6 66/116/6 70/123/6
f 72/126/4 71/125/4 69/122/4
f 80/139/3 76/132/3 75/131/3
f 74/129/5 76/132/5 80/139/5
f 79/138/2 75/131/2 73/127/2
f 73/127/1 75/131/1 76/133/1
f 73/127/6 74/130/6 78/137/6
f 80/140/14 79/138/14 77/134/14
f 96/168/6 93/162/6 94/163/6
f 84/147/6 81/143/6 82/144/6
f 42/74/1 43/77/1 44/78/1
f 9/15/4 12/22/4 11/21/4
f 88/154/6 87/152/6 86/151/6
f 92/161/6 91/159/6 90/156/6
f 98/170/4 100/172/4 99/171/4
f 100/172/2 104/181/2 103/179/2
f 104/182/1 102/177/1 101/174/1
f 102/176/5 98/170/5 97/169/5
f 103/180/6 101/175/6 97/169/6
f 100/172/3 98/170/3 102/177/3
f 106/184/4 108/186/4 107/185/4
f 108/186/2 112/195/2 111/193/2
f 112/196/1 110/191/1 109/188/1
f 110/190/5 106/184/5 105/183/5
f 111/194/6 109/189/6 105/183/6
f 108/186/3 106/184/3 110/191/3
f 114/201/4 116/206/4 115/204/4
f 116/205/2 120/210/2 119/209/2
f 120/210/1 118/208/1 117/207/1
f 118/208/5 114/200/5 113/198/5
f 119/209/6 117/207/6 113/199/6
f 116/206/3 114/201/3 118/208/3
